<?xml version="1.0" encoding="utf-8" ?>
<svg xmlns="http://www.w3.org/2000/svg" xmlns:xlink="http://www.w3.org/1999/xlink" width="1024" height="1024">
	<defs>
		<linearGradient id="gradient_0" gradientUnits="userSpaceOnUse" x1="321.46017" y1="962.14185" x2="714.88593" y2="160.8893">
			<stop offset="0" stop-color="#180744"/>
			<stop offset="1" stop-color="#390035"/>
		</linearGradient>
	</defs>
	<path fill="url(#gradient_0)" d="M254.225 201.756C251.494 193.091 250.279 184.089 249.723 175.047C247.482 138.639 259.117 102.607 283.37 75.2603C287.872 70.1842 295.619 61.6958 302.919 61.4966C307.024 61.3846 309.825 64.2582 311.585 67.6819C314.607 73.5618 314.812 80.9522 316.215 87.3531C320.55 107.13 333.874 124.743 348.327 138.346C355.94 137.134 363.615 136.229 371.271 135.334C370.304 133.903 369.19 132.334 368.773 130.631C368.442 129.282 368.751 128.319 369.424 127.139C370.411 126.304 371.17 125.839 372.459 125.597C378.636 124.438 388.69 127.607 393.885 130.908C393.244 127.232 392.652 123.655 392.528 119.921C396.244 112.942 402.955 108.975 410.36 106.724C413.315 105.826 416.913 105.004 419.811 106.504C420.498 106.86 420.981 107.383 421.495 107.946C422.075 110.646 421.224 113.733 420.894 116.456C419.883 124.818 422.146 133.221 429.553 138.029C439.097 144.223 451.53 145.808 461.812 150.89C485.892 137.212 506.854 122.077 522.277 98.5871C526.038 92.8585 528.827 86.6254 532.41 80.8086C534.866 76.8206 537.298 73.6132 542.44 75.1268C549.903 77.3234 556.061 88.6438 559.309 95.1201C578.45 133.285 582.362 178.332 568.81 218.92C564.254 232.567 557.511 244.152 549.839 256.176C558.914 279.834 561.479 304.042 566.226 328.711C575.714 332.319 585.389 336.494 592.885 343.538C598.306 332.563 603.67 323.441 612.415 314.721C607.112 325.186 602.93 335.961 599.378 347.134C611.719 333.86 625.593 322.003 641.452 313.115C646.767 310.137 652.267 307.518 657.907 305.218C668.883 300.742 683.917 296.983 691.803 287.531C695.17 283.495 697.079 278.57 698.959 273.725C696.981 287.437 693.657 300.582 684.338 311.334C720.524 296.566 757.578 290.712 794.888 306.234C804.856 310.38 814.331 316.253 822.598 323.19C839.791 337.617 846.33 347.361 869.763 352.441C860.647 355.569 850.789 357.828 841.118 358.091C872.334 384.102 891.574 420.445 895.221 460.944C896.143 471.183 895.498 481.99 897.112 492.072C890.044 479.291 885.417 465.652 875.925 454.26C884.62 492.122 880.9 529.583 859.923 563.07C843.444 589.379 814.978 611.137 786.26 622.726C789.28 606.622 789.47 588.359 779.816 574.31C773.981 565.819 766.575 562.56 756.761 560.721C751.322 585.367 756.955 614.291 762.292 638.57C763.795 634.524 765.483 630.623 767.305 626.711C782.854 657.49 781.204 692.293 770.618 724.333C755.473 770.175 721.088 809.583 677.978 831.248C652.432 844.086 623.014 850.718 594.417 849.051C589.401 848.759 584.027 848.481 579.137 847.369C572.342 856.864 564.448 865.504 555.618 873.157C567.717 887.492 589.011 886.975 596.32 907.046C597.836 911.207 598.796 915.751 598.446 920.195C598.09 924.72 596.284 928.038 592.716 930.841C589.63 933.263 585.851 934.811 582.297 936.409C566.91 943.33 563.039 942.838 546.76 943.845C540.293 944.245 534.403 945.115 527.911 944.195C511.874 941.923 499.653 933.309 490.119 920.438C486.083 914.989 483.027 909.645 484.219 902.595C485.123 897.248 487.477 891.982 489.477 886.967C481.648 877.391 472.369 869.83 462.943 861.888C441.41 864.254 417.179 864.915 395.759 860.832C386.251 866.975 379.649 875.352 374.034 885.084C377.818 889.971 384.992 897.627 384.05 904.155C383.469 908.181 379.491 911.249 376.352 913.42C355.755 927.669 304.175 944.452 279.793 939.77C275.291 938.906 272.448 937.602 269.246 934.337C261.579 933.052 252.208 931.641 247.35 924.777C244.811 921.189 244.55 916.934 245.436 912.737C247.756 901.736 257.072 890.425 266.494 884.612C276.177 878.637 286.85 877.482 297.997 877.455C290.112 871.509 282.205 865.607 275.059 858.766C253.434 838.064 239.229 810.588 235.086 780.912C232.477 762.229 233.896 743.7 237.438 725.247C238.948 717.382 241.449 709.189 241.753 701.186C242.144 690.915 239.235 679.654 237.547 669.519C231.937 665.626 227.155 660.913 222.324 656.124C206.176 654.434 195.096 652.019 184.352 638.852C174.172 626.378 169.831 609.919 171.625 594.006C173.291 579.229 179.058 569.802 190.373 560.51C186.607 559.573 183.283 558.498 179.827 556.676C191.914 552.319 196.338 547.338 206.428 541.057C208.712 537.808 215 533.589 218.25 530.51C227.783 521.48 236.805 511.827 246.631 503.125C257.228 493.741 268.615 485.653 280.194 477.549C270.493 473.652 260.388 469.726 251.495 464.167C249.54 463.635 247.273 462.031 245.508 461.009C232.222 453.313 220.938 443.444 209.742 433.033C211.071 438.805 212.099 444.664 213.398 450.45C208.115 447.972 203.107 445.123 198.684 441.285C185.705 430.022 179.489 413.195 178.357 396.38C175.666 399.735 173.151 403.255 170.576 406.7C169.391 404.278 168.276 401.876 167.467 399.298C162.342 382.972 167.568 369.267 175.142 354.855C171.448 356.845 168.341 359.637 165.148 362.326C164.805 357.823 164.679 353.693 165.67 349.262C168.582 336.234 178.464 328.241 189.208 321.444C185.253 319.463 180.344 317 177.773 313.265C176.905 312.003 176.896 311.202 177.226 309.752C178.252 308.851 178.598 308.622 179.991 308.387C185.208 307.507 190.76 307.696 196.05 307.096C203.314 306.273 210.484 304.738 217.738 303.803C224.73 268.129 235.931 233.252 254.225 201.756ZM547.531 455.888C542.859 458.81 527.195 469.481 521.93 467.91C520.72 467.549 520.123 467.165 519.67 465.966C519.199 464.719 519.348 462.788 519.41 461.469C515.446 463.84 511.499 466.467 507.415 468.61C513.142 472.704 518.555 477.149 523.862 481.773C531.032 488.676 537.412 495.586 543.414 503.557C543.448 494.099 543.441 484.741 544.461 475.322C544.946 470.846 548.321 459.017 547.981 456.067L547.531 455.888Z"/>
	<path fill="#92F6FD" d="M414.659 114.399C413.875 119.956 414.105 124.1 415.995 129.483C415.083 130.198 414.387 130.917 413.234 131.17C411.649 127.138 410.898 122.697 411.082 118.376C411.693 117.953 411.509 118.151 411.936 117.6C412.816 116.468 413.663 115.435 414.659 114.399Z"/>
	<path fill="#D02017" d="M344.257 610.191C347.341 613.268 350.172 614.971 354.185 616.619C352.796 618.64 351.44 620.372 349.69 622.109C346.364 618.397 344.524 615.241 344.257 610.191Z"/>
	<path fill="#92F6FD" d="M196.524 564.304C204.017 559.913 211.317 559.996 219.638 560.932L220.952 562.171L219.334 563.924C213.733 563.882 200.565 566.553 196.524 564.304Z"/>
	<path fill="#931D2D" d="M253.201 631.827C254.132 634.519 255.132 636.942 253.845 639.693C252.841 641.839 250.735 643.05 248.538 643.685C242.747 645.361 235.997 644.266 230.421 642.275C234.899 640.33 239.682 641.292 244.324 640.086C248.834 638.914 250.953 635.55 253.201 631.827Z"/>
	<path fill="#931D2D" d="M229.025 655.038C236.554 654.657 243.268 661.122 249.77 654.853C251.453 656.485 252.686 658.856 253.346 661.091C253.225 661.718 253.281 662.191 252.781 662.644C251.753 663.578 250.305 663.683 248.979 663.687C241.774 663.71 234.053 660.004 229.025 655.038Z"/>
	<path fill="#931D2D" d="M580.97 909.919C583.618 910.095 588.693 911.722 590.891 911.022C591.467 912.784 591.555 914.626 591.581 916.47C591.626 919.542 590.746 922.489 588.462 924.64C587.546 925.502 587.079 925.781 585.834 925.718C583.467 923.82 582.278 913.516 580.97 909.919Z"/>
	<path fill="#64CFD2" d="M398.656 129.613C398.359 128.26 398.201 126.959 398.222 125.569C398.271 122.327 399.586 119.445 402.006 117.287C404.74 114.848 410.658 112.058 414.453 112.236L415.015 112.943L414.659 114.399C413.663 115.435 412.816 116.468 411.936 117.6C411.509 118.151 411.693 117.953 411.082 118.376C405.866 120.722 404.748 127.263 399.284 129.357C399.073 129.438 398.865 129.528 398.656 129.613Z"/>
	<path fill="#04495E" d="M488.647 547.869C494.824 552 502.349 558.878 509.645 560.705C504.466 561.693 499.355 562.83 494.312 564.377C491.666 558.961 489.588 553.848 488.647 547.869Z"/>
	<path fill="#97707F" d="M533.161 447.95C539.555 448.36 545.283 444.765 551.463 443.699C543.938 451.581 536.019 456.898 525.764 460.638C527.85 456.123 530.386 452.064 533.161 447.95Z"/>
	<defs>
		<linearGradient id="gradient_1" gradientUnits="userSpaceOnUse" x1="282.16644" y1="900.49835" x2="273.85342" y2="888.99316">
			<stop offset="0" stop-color="#FEAC60"/>
			<stop offset="1" stop-color="#FF8953"/>
		</linearGradient>
	</defs>
	<path fill="url(#gradient_1)" d="M253.252 913.455C253.927 911.446 254.632 909.471 255.578 907.571C260.946 896.79 270.543 889.115 281.872 885.333C290.174 882.561 302.021 880.474 310.184 884.611C310.027 884.635 309.87 884.661 309.712 884.683C305.469 885.274 301.142 884.811 296.872 885.11C283.027 886.083 270.048 891.787 261.518 902.942C259.723 905.29 258.402 907.527 257.213 910.226L256.869 910.987L256.669 911.447L254.099 913.603L253.252 913.455Z"/>
	<path fill="#931D2D" d="M351.06 596.88C357.885 603.961 376.511 604.269 378.756 608.975C378.292 609.803 378.477 609.797 377.515 610.16C373.584 607.783 359.528 611.386 352.987 609.602C351.319 609.146 349.603 608.278 348.914 606.574C347.646 603.439 349.687 599.64 351.06 596.88Z"/>
	<path fill="#931D2D" d="M354.337 624.41L357.116 629.754C358.696 630.58 360.385 631.565 362.134 631.961C370.606 633.879 386.509 626.738 392.746 631.825L392.74 632.123C386.624 631.456 378.708 636.272 373.04 638.44C368.433 640.203 361.158 642.472 356.499 640.151C355.006 639.408 353.859 638.066 353.369 636.47C351.972 631.913 352.229 628.61 354.337 624.41Z"/>
	<path fill="#931D2D" d="M256.669 911.447C263.171 908.897 269.216 907.499 276.056 906.299C271.783 912.984 269.365 919.723 266.395 927.002C262.208 925.928 255.135 924.558 252.843 920.398C251.858 918.611 251.962 915.827 252.891 913.993C252.988 913.8 253.132 913.634 253.252 913.455L254.099 913.603L256.669 911.447Z"/>
	<path fill="#F46338" d="M863.716 442.61C876.397 474.632 876.159 510.033 862.426 541.78C858.757 550.262 854.034 558.465 848.617 565.956C848.558 562.237 857.328 549.76 859.395 545.275C861.474 540.763 862.864 535.56 864.152 530.749C870.546 506.87 871.526 481.483 866.913 457.173C866.242 453.636 864.96 450.166 864.065 446.671C863.642 445.017 863.23 444.26 863.716 442.61Z"/>
	<path fill="#931D2D" d="M577.906 912.734C579.153 917.686 580.693 923.481 577.958 928.233C575.935 931.748 572.236 933.231 568.469 934.138C562.782 935.506 556.773 935.982 550.971 936.678C550.705 933.279 550.428 929.915 550.494 926.503C556.368 926.727 563.082 926.893 568.5 924.277C573.157 922.029 576.25 917.526 577.906 912.734Z"/>
	<path fill="#64CFD2" d="M247.218 801.238C237.264 776.91 241.719 738.642 246.733 713.172L247.111 713.242L248.316 716.428C247.573 721.349 248.076 726.407 247.717 731.367C247.271 737.54 245.946 743.277 245.965 749.522C245.966 749.626 245.943 749.728 245.932 749.831L245.306 749.632C244.363 755.182 244.341 769.978 245.23 775.696C245.908 780.055 249.823 795.42 249.356 798.517C249.283 799.006 247.614 800.804 247.218 801.238Z"/>
	<path fill="#C29C92" d="M520.014 164.123C523.272 167.936 529.009 173.39 530.494 178.089C527.992 183.448 519.084 188.73 514.019 191.243L503.155 180.375C509.855 176.2 515.171 170.282 520.014 164.123Z"/>
	<path fill="#64CFD2" d="M415.995 129.483C425.926 145.936 432.75 146.169 449.8 152.672C458.214 155.881 466.321 160.11 473.967 164.866C493.44 176.98 509.033 194.158 521.876 212.992C521.537 213.555 521.785 213.211 520.985 213.901C519.735 213.369 509.371 199.539 507.215 197.143C495.422 184.035 468.992 161.549 451.501 157.641C446.808 154.065 440.157 152.702 434.729 150.45C425.584 146.658 417.136 140.634 413.234 131.17C414.387 130.917 415.083 130.198 415.995 129.483Z"/>
	<path fill="#FBF7DF" d="M539.184 127.922C541.893 132.692 543.524 138.325 545.325 143.506C544.326 149.16 543.155 161.132 539.534 165.232C538.223 165.787 537.852 166.03 536.411 165.629C532.012 164.405 528.941 159.054 524.719 157.403C529.879 147.074 534.918 139.011 539.184 127.922Z"/>
	<path fill="#97707F" d="M581.417 387.386C586.713 397.488 586.439 407.923 583.112 418.67C580.104 428.384 574.984 437.001 568.697 444.94C568.746 435.969 567.959 426.709 568.85 417.797C570.012 418.761 570.151 419.222 571.701 419.112C580.478 413.243 577.718 393.877 581.417 387.386Z"/>
	<path fill="#2B023B" d="M318.888 889.538C324.447 890.171 330.074 893.059 335.387 894.797C339.148 896.027 343.026 896.609 346.934 897.149C351.229 897.742 356.565 897.017 360.818 896.159C362.027 895.915 369.849 893.589 370.581 893.903C371.548 894.318 372.739 895.971 373.397 896.79C373.887 897.399 373.695 897.166 374.411 897.825C361.342 904.207 346.4 904.103 332.422 900.89C329.352 900.184 326.439 899.041 323.405 898.264C319.56 896.611 315.385 895.184 311.262 894.424C308.867 893.982 304.457 893.649 302.39 895.073L301.797 895.091L302.211 893.446L301.631 893.071C300.263 893.203 299.071 893.31 297.735 892.901C297.418 892.804 297.105 892.695 296.79 892.593C297.863 892.18 298.721 891.872 299.862 891.688C302.091 891.33 304.199 890.499 306.41 890.047C310.569 889.197 314.679 889.346 318.888 889.538Z"/>
	<path fill="#F2B18C" d="M593.723 364.699C614.696 338.352 629.222 327.035 659.8 312.235C665.674 309.392 672.389 305.285 678.859 304.133L679.199 304.661C674.053 306.741 669.239 309.679 664.421 312.415C643.873 324.08 625.241 338.066 609.224 355.508C604.687 360.449 601.878 366.989 597.184 371.665C595.924 369.394 594.836 367.044 593.723 364.699Z"/>
	<path fill="#64CFD2" d="M196.524 564.304C200.565 566.553 213.733 563.882 219.334 563.924C215.224 570.109 211.528 576.234 208.288 582.935C204.357 583.144 198.755 584.523 195.018 583.921C193.161 583.622 190.901 581.915 189.159 581.879C186.288 581.82 183.446 584.089 180.399 584.226C183.935 575.519 188.064 568.992 196.524 564.304Z"/>
	<path fill="#F46338" d="M310.184 884.611C313.18 886.112 316.024 887.802 318.888 889.538C314.679 889.346 310.569 889.197 306.41 890.047C304.199 890.499 302.091 891.33 299.862 891.688C298.721 891.872 297.863 892.18 296.79 892.593C289.181 894.881 281.011 900.031 276.056 906.299C269.216 907.499 263.171 908.897 256.669 911.447L256.869 910.987L257.213 910.226C258.402 907.527 259.723 905.29 261.518 902.942C270.048 891.787 283.027 886.083 296.872 885.11C301.142 884.811 305.469 885.274 309.712 884.683C309.87 884.661 310.027 884.635 310.184 884.611Z"/>
	<path fill="#97707F" d="M530.494 178.089C534.105 185.064 536.982 197.219 541.782 202.679C539.625 208.358 536.542 213.533 533.452 218.736C527.315 209.259 520.571 200.415 514.019 191.243C519.084 188.73 527.992 183.448 530.494 178.089Z"/>
	<path fill="#F2B18C" d="M562.975 439.447C562.525 443.007 561.658 447.069 561.988 450.638C562.205 452.983 562.768 454.005 564.595 455.458C558.503 471.094 557.39 487.435 556.783 504.004C556.575 509.686 556.98 516.186 555.711 521.717L549.481 511.397C549.863 490.87 549.39 455.478 562.975 439.447Z"/>
	<path fill="#F2B18C" d="M545.325 143.506C550.827 164.003 548.938 182.937 541.782 202.679C536.982 197.219 534.105 185.064 530.494 178.089C529.009 173.39 523.272 167.936 520.014 164.123C521.539 161.846 523.056 159.583 524.719 157.403C528.941 159.054 532.012 164.405 536.411 165.629C537.852 166.03 538.223 165.787 539.534 165.232C543.155 161.132 544.326 149.16 545.325 143.506Z"/>
	<path fill="#931D2D" d="M427.767 611.652C429.037 623.791 428.985 635.765 420.889 645.75C413.065 655.401 399.719 658.821 387.868 659.843C383.376 660.231 377.972 660.362 374.267 657.371C373.008 656.354 372.197 654.956 372.15 653.312C372.11 651.91 372.784 650.938 373.523 649.84C380.859 651.888 389.324 649.008 396.104 646.162C416.06 637.786 419.919 630.817 427.767 611.652Z"/>
	<path fill="#931D2D" d="M532.376 117.07C535.085 121.323 535.023 126.438 533.947 131.231C530.035 148.659 514.882 167.153 499.933 176.477C490.234 168.274 479.321 161.462 468.539 154.8C474.522 151.308 480.407 147.552 486.579 144.405C486.099 146.341 485.747 148.312 485.358 150.269C485.865 151.222 486.357 152.191 486.93 153.107C488.778 156.063 492.136 158.648 495.569 159.417C500.1 160.431 504.409 158.693 508.125 156.181C521.577 147.087 529.406 132.702 532.376 117.07Z"/>
	<path fill="#931D2D" d="M496.12 889.882C510.662 891.126 523.232 890.459 536.565 884.081C540.725 882.09 544.645 879.686 548.779 877.65C552.863 881.662 558.05 885.138 562.55 888.74C557.762 888.507 553.124 888.381 548.348 888.943C539.062 890.036 507.868 896.669 501.85 902.388C499.695 904.436 497.885 907.108 496.12 909.499C502.396 919.732 510.955 925.396 522.631 928.158C530.771 930.084 538.575 929.848 546.749 928.316C546.845 931.089 546.557 933.985 546.433 936.764C537.98 937.388 529.791 937.561 521.584 935.145C506.872 930.815 497.053 919.325 489.999 906.275C492.183 900.857 494.424 895.479 496.12 889.882Z"/>
	<path fill="#F46338" d="M208.49 592.381C210.056 583.379 216.003 572.447 222.474 566C228.477 560.018 234.923 558.016 243.206 557.973C242.729 559.724 242.011 561.367 241.32 563.042C240.384 567.946 239.303 576.774 235.077 579.747C230.646 582.865 226.267 583.844 222.961 588.672C232.025 587.757 240.63 585.445 248.413 591.707C248.708 591.944 248.996 592.188 249.285 592.432C249.492 595.259 249.509 597.178 247.588 599.402C245.174 602.199 240.853 602.959 237.321 603.138C236.645 603.173 235.967 603.17 235.29 603.161C230.121 602.467 224.371 604.573 219.068 603.26C214.216 602.059 210.719 596.41 208.49 592.381Z"/>
	<path fill="#931D2D" d="M241.32 563.042C240.384 567.946 239.303 576.774 235.077 579.747C230.646 582.865 226.267 583.844 222.961 588.672C221.456 588.508 220.448 588.053 219.391 586.974C219.574 583.594 238.034 566.662 241.32 563.042Z"/>
	<path fill="#931D2D" d="M374.411 897.825C375.794 899.492 376.568 901.522 377.691 903.354C354.899 921.222 308.903 935.893 280.247 932.265C278.074 931.989 275.15 931.441 273.685 929.599C272.932 928.652 273.03 928.173 273.229 927.104L273.714 927.79C274.965 926.979 275.489 924.939 276.037 923.574C281.137 924.802 286.336 925.728 291.582 926.003C302.072 926.551 318.345 923.816 326.224 916.374C328.279 914.433 329.645 912.035 329.659 909.156C329.681 904.627 326.485 901.168 323.405 898.264C326.439 899.041 329.352 900.184 332.422 900.89C346.4 904.103 361.342 904.207 374.411 897.825Z"/>
	<path fill="#F46338" d="M302.39 895.073C304.457 893.649 308.867 893.982 311.262 894.424C315.385 895.184 319.56 896.611 323.405 898.264C326.485 901.168 329.681 904.627 329.659 909.156C329.645 912.035 328.279 914.433 326.224 916.374C318.345 923.816 302.072 926.551 291.582 926.003C286.336 925.728 281.137 924.802 276.037 923.574C275.489 924.939 274.965 926.979 273.714 927.79L273.229 927.104C273.578 923.684 275.038 920.304 276.487 917.218C281.367 906.829 291.14 898.971 301.797 895.091L302.39 895.073Z"/>
	<path fill="#F2B18C" d="M302.39 895.073C304.785 895.767 307.63 895.03 310.158 895.344C297.189 898.551 286.561 904.977 279.574 916.583C278.227 918.82 276.97 921.132 276.037 923.574C275.489 924.939 274.965 926.979 273.714 927.79L273.229 927.104C273.578 923.684 275.038 920.304 276.487 917.218C281.367 906.829 291.14 898.971 301.797 895.091L302.39 895.073Z"/>
	<path fill="#1F97A5" d="M180.399 584.226C183.446 584.089 186.288 581.82 189.159 581.879C190.901 581.915 193.161 583.622 195.018 583.921C198.755 584.523 204.357 583.144 208.288 582.935C201.337 601.723 201.056 617.9 209.596 636.48C211.372 640.342 213.666 643.942 215.902 647.548C203.207 644.706 193.969 640.623 186.773 629.354C179.011 617.198 176.722 600.588 179.826 586.599C180.002 585.803 180.194 585.015 180.399 584.226Z"/>
	<path fill="#F46338" d="M486.579 144.405C491.491 139.707 497.414 135.847 502.495 131.239C513.96 120.843 524.002 108.751 531.818 95.3763C533.708 92.142 534.884 88.5795 536.767 85.3664C537.85 83.5194 538.654 82.1017 540.828 81.5419C541.32 89.1899 538.331 108.203 533.644 113.905C532.62 114.782 532.433 114.891 532.352 116.311C532.338 116.564 532.368 116.817 532.376 117.07C529.406 132.702 521.577 147.087 508.125 156.181C504.409 158.693 500.1 160.431 495.569 159.417C492.136 158.648 488.778 156.063 486.93 153.107C486.357 152.191 485.865 151.222 485.358 150.269C485.747 148.312 486.099 146.341 486.579 144.405Z"/>
	<defs>
		<linearGradient id="gradient_2" gradientUnits="userSpaceOnUse" x1="214.22905" y1="641.90918" x2="246.81517" y2="601.44849">
			<stop offset="0" stop-color="#C02425"/>
			<stop offset="1" stop-color="#EB332E"/>
		</linearGradient>
	</defs>
	<path fill="url(#gradient_2)" d="M208.49 592.381C210.719 596.41 214.216 602.059 219.068 603.26C224.371 604.573 230.121 602.467 235.29 603.161C235.967 603.17 236.645 603.173 237.321 603.138C240.853 602.959 245.174 602.199 247.588 599.402C249.509 597.178 249.492 595.259 249.285 592.432C251.767 594.932 254.195 597.539 254.087 601.311C254.019 603.647 252.877 605.693 251.158 607.23C248.763 609.373 246.107 610.236 243.036 610.961C234.471 613.06 224.985 612.548 216.212 612.514C227.807 618.859 246.272 619.985 253.201 631.827C250.953 635.55 248.834 638.914 244.324 640.086C239.682 641.292 234.899 640.33 230.421 642.275C225.412 639.905 221.11 636.064 216.782 632.65C223.256 642.831 230.238 647.475 242.008 650.087L245.642 650.865C247.085 652.138 248.541 653.364 249.77 654.853C243.268 661.122 236.554 654.657 229.025 655.038C223.618 651.104 219.514 645.687 216.065 640.008C207.075 625.204 204.442 609.188 208.49 592.381Z"/>
	<path fill="#931D2D" d="M249.285 592.432C251.767 594.932 254.195 597.539 254.087 601.311C254.019 603.647 252.877 605.693 251.158 607.23C248.763 609.373 246.107 610.236 243.036 610.961C246.146 607.185 248.058 603.946 249.677 599.314C244.576 602.924 241.488 603.553 235.29 603.161C235.967 603.17 236.645 603.173 237.321 603.138C240.853 602.959 245.174 602.199 247.588 599.402C249.509 597.178 249.492 595.259 249.285 592.432Z"/>
	<path fill="#04495E" d="M451.501 157.641C468.992 161.549 495.422 184.035 507.215 197.143C509.371 199.539 519.735 213.369 520.985 213.901C521.785 213.211 521.537 213.555 521.876 212.992C526.577 217.154 529.675 223.842 532.511 229.384C548.579 260.771 554.567 294.299 560.314 328.78C556.594 327.918 549.825 325.493 546.391 327.228L545.074 326.837C543.62 319.138 542.81 311.36 541.212 303.657C532.959 263.857 518.304 216.139 488.621 187.014C483.56 182.049 478.031 177.46 472.316 173.263C467.739 169.902 452.674 161.048 450.515 158.2L451.501 157.641Z"/>
	<path fill="#F46338" d="M260.125 638.317C281.868 635.141 301.725 629.305 322.008 620.935C325.202 619.616 328.431 618.3 331.528 616.764C335.182 614.952 340.358 610.804 344.257 610.191C344.524 615.241 346.364 618.397 349.69 622.109C347.171 626.675 347.426 631.692 347.559 636.72C321.554 650.231 286.793 662.065 257.489 656.765C256.349 654.417 253.828 651.391 253.184 649.007C252.968 648.207 253.05 647.733 253.548 647.011C255.679 643.925 257.707 642.386 260.125 638.317Z"/>
	<path fill="#931D2D" d="M380.036 555.977C380.175 556.071 380.335 556.139 380.452 556.258C382.637 558.485 384.675 577.062 385.235 581.05C382.824 580.864 380.385 580.76 377.966 580.77C368.137 580.81 355.688 583.295 348.6 590.669C344.393 595.045 343.477 599.748 343.542 605.573C337.625 608.492 331.865 611.645 325.841 614.355C303.615 624.352 283.222 629.363 259.411 633.727C258.243 632.922 257.968 631.335 257.532 630.048C255.135 625.483 250.953 621.24 247.728 617.204C253.868 615.653 260.315 615.809 266.506 614.234C296.704 606.553 328.921 593.856 354.633 576.037C363.619 569.81 371.455 562.629 380.036 555.977Z"/>
	<path fill="#F46338" d="M496.12 909.499C497.885 907.108 499.695 904.436 501.85 902.388C507.868 896.669 539.062 890.036 548.348 888.943C553.124 888.381 557.762 888.507 562.55 888.74C573.478 892.903 584.8 897.383 589.976 908.751C590.316 909.498 590.603 910.253 590.891 911.022C588.693 911.722 583.618 910.095 580.97 909.919C577.228 904.967 573.923 901.248 568.375 898.256C572.414 902.68 575.805 907.059 577.906 912.734C576.25 917.526 573.157 922.029 568.5 924.277C563.082 926.893 556.368 926.727 550.494 926.503C547.398 912.949 542.16 905.925 530.442 898.47C540.575 908.163 545.885 913.327 546.749 928.316C538.575 929.848 530.771 930.084 522.631 928.158C510.955 925.396 502.396 919.732 496.12 909.499Z"/>
	<path fill="#931D2D" d="M540.828 81.5419C542.995 83.2531 545.673 85.0573 546.87 87.6171C549.841 92.036 553.031 96.3669 554.779 101.446C573.057 134.092 575.042 176.265 565.072 211.834C561.644 224.065 555.714 237.629 548.547 248.232C545.121 239.236 541.189 230.876 536.005 222.741C551.1 202.708 556.581 178.607 552.998 153.806C551.065 140.429 544.59 122.597 533.644 113.905C538.331 108.203 541.32 89.1899 540.828 81.5419Z"/>
	<path fill="#F46338" d="M546.87 87.6171C549.841 92.036 553.031 96.3669 554.779 101.446C555.047 107.701 557.802 112.516 559.876 118.254C566.376 136.23 567.457 158.204 562.195 176.608C560.533 182.421 558.027 187.832 555.507 193.307C556.065 189.839 557.393 186.505 558.146 183.063C559.83 175.363 559.024 166.548 557.943 158.809C555.515 141.434 552.526 125.921 537.955 114.833C539.273 105.484 543.135 96.2462 546.87 87.6171Z"/>
	<path fill="#F46338" d="M394.412 587.007C392.526 582.75 389.401 577.374 390.856 572.62C391.812 571.567 392.078 571.194 393.568 570.979C398.354 570.288 406.679 577.024 409.929 580.241C418.639 588.862 424.563 599.899 427.767 611.652C419.919 630.817 416.06 637.786 396.104 646.162C389.324 649.008 380.859 651.888 373.523 649.84C379.238 643.24 386.995 638.688 392.74 632.123L392.746 631.825C386.509 626.738 370.606 633.879 362.134 631.961C360.385 631.565 358.696 630.58 357.116 629.754L354.337 624.41C354.412 624.295 354.485 624.178 354.562 624.064C354.691 623.874 354.824 623.688 354.954 623.499C359.866 616.313 369.813 613.269 377.515 610.16C378.477 609.797 378.292 609.803 378.756 608.975C376.511 604.269 357.885 603.961 351.06 596.88C358.703 589.108 367.646 586.539 378.361 586.457C383.711 586.416 389.06 586.926 394.412 587.007Z"/>
	<path fill="#931D2D" d="M349.977 640.426C350.126 640.54 350.274 640.657 350.425 640.77C356.724 645.467 361.395 645.921 368.958 644.894C368.132 647.972 367.202 651.102 367.61 654.324C367.959 657.079 369.216 659.435 371.489 661.069C377.439 665.349 387.117 664.015 393.916 662.965C390.293 668.816 384.305 674.483 378.983 678.819C359.252 694.896 333.739 703.304 308.35 700.833C307.14 700.708 305.988 700.514 304.803 700.24C283.015 695.195 271.396 678.906 260.22 660.901C288.135 665.626 325.279 653.645 349.977 640.426Z"/>
	<defs>
		<linearGradient id="gradient_3" gradientUnits="userSpaceOnUse" x1="407.99197" y1="603.68054" x2="557.25977" y2="538.49963">
			<stop offset="0" stop-color="#235473"/>
			<stop offset="1" stop-color="#0D738D"/>
		</linearGradient>
	</defs>
	<path fill="url(#gradient_3)" d="M504.425 469.94C539.071 498.411 559.733 536.343 574.313 578.073C570.529 575.152 566.39 573.016 562.431 570.384C570.921 580.285 577.644 590.45 583.733 601.979C578.895 599.763 573.949 597.965 568.813 596.564C572.611 603.686 576.266 610.954 578.6 618.709C573.586 615.889 568.794 612.658 564.192 609.208C561.505 622.274 556.633 630.825 545.301 638.253C519.744 655.003 467.049 659.417 437.145 653.075C433.411 652.282 429.753 651.196 426.14 649.973C429.838 644.74 432.719 639.034 433.664 632.628C434.017 633.63 434.12 633.714 435.066 634.243C437.9 635.824 441.973 636.392 445.169 636.853C466.277 639.897 495.243 636.436 515.503 629.472C531.101 624.11 547.029 614.797 554.472 599.423C562.617 582.597 557.595 564.331 551.722 547.626C544.663 527.549 529.794 501.698 509.53 492.409C495.044 485.769 482.506 493.954 469.128 498.935C465.065 500.447 460.78 500.901 456.744 502.379C454.782 508.143 459.815 528.604 460.317 536.126L459.545 536.484C456.771 525.178 455.931 512.975 454.859 501.417L454.682 496C455.697 494.119 455.423 490.109 455.569 487.868C467.503 484.66 494.754 477.112 504.425 469.94Z"/>
	<path fill="#C29C92" d="M267.755 752.105C267.885 752.193 268.017 752.278 268.145 752.369C272.929 755.77 277.178 761.944 281.174 766.351C284.132 769.611 287.453 772.6 290.775 775.488C319.566 800.518 360.787 813.33 398.603 807.546C416.278 804.843 428.157 798.867 444.41 793.229C444.164 794.129 443.974 795.038 443.78 795.951C438.684 819.84 443.024 834.334 456.122 854.511C424.518 859.101 391.924 856.201 362.394 843.637C330.611 830.114 304.855 805.592 284.195 778.419C277.897 770.136 271.67 761.816 267.755 752.105Z"/>
	<path fill="#04495E" d="M591.836 742.122C597.464 780.223 592.707 817.781 569.225 849.464C558.337 864.155 540.336 881.529 521.536 884.281C512.404 885.618 501.129 885.112 493.541 879.279C489.122 875.882 485.28 871.676 481.093 867.991C464.984 853.812 451.535 840.938 448.882 818.469C448.107 811.904 447.747 798.875 449.77 792.628C450.416 785.08 452.323 777.794 454.148 770.468C456.259 766.425 457.332 762.608 460.153 758.855C458.615 771.914 451.069 782.724 451.758 796.389C451.973 797.555 452.193 798.72 452.448 799.879C455.134 812.059 466.21 824.697 476.553 831.205C489.652 839.447 505.921 842.725 521.089 839.205C550.994 832.265 572.617 804.399 580.849 776.012C583.023 768.514 586.979 750.128 590.715 744.414C591.231 743.624 591.575 743.053 591.836 742.122Z"/>
	<path fill="#C29C92" d="M420.923 655.249C444.795 667.728 497.127 661.491 523.031 655.166C518.811 661.475 500.395 687.091 498.883 691.952L498.622 691.931C496.721 690.047 484.587 692.025 481.279 692.082C461.858 692.419 443.191 688.471 425.438 680.718C421.05 686.185 417.085 691.979 412.571 697.347C400.714 711.445 385.498 721.927 367.921 727.495C347.666 733.91 326.64 733.847 307.567 723.81C295.736 717.584 281.693 704.808 277.622 691.702C293.423 702.697 306.362 707.422 325.911 705.565C347.103 703.552 369.938 694.412 385.476 679.604C390.827 674.505 395.093 668.576 399.797 662.916C407.368 661.518 414.287 659.175 420.923 655.249Z"/>
	<path fill="#F46338" d="M258.35 544.567C271.291 530.353 288.755 520.659 308.214 519.838C326.778 519.054 345.667 525.649 359.354 538.261C362.42 541.086 365.474 544.148 367.788 547.632C369.41 550.225 370.965 552.745 372.21 555.547C348.012 580.151 290.839 605.583 256.618 610.398C258.774 606.571 260.382 602.949 259.037 598.471C257.665 593.9 253.736 590.325 250.181 587.353C248.121 586.241 245.767 585.524 243.573 584.704C244.681 572.441 247.033 562.203 253.362 551.532C255.053 549.228 256.727 546.92 258.35 544.567Z"/>
	<path fill="#FBF7DF" d="M291.5 533.28C292.074 533.368 292.396 533.401 292.982 533.578C294.264 533.965 294.723 534.365 295.3 535.529C294.953 537.329 293.727 538.402 292.537 539.707C291.955 539.616 291.617 539.583 291.029 539.385C289.917 539.012 289.343 538.501 288.843 537.483C289.097 535.612 290.261 534.625 291.5 533.28Z"/>
	<path fill="#FBF7DF" d="M314.227 539.912C316.329 540.066 318.555 540.267 319.981 542.023C320.836 543.075 320.957 544.065 320.71 545.362C320.314 547.45 318.358 548.885 316.774 550.067C314.915 550.063 313.14 550.168 311.504 549.148C310.522 548.536 309.838 547.47 309.806 546.301C309.731 543.502 312.32 541.503 314.227 539.912Z"/>
	<path fill="#F2B18C" d="M253.362 551.532C254.634 553.343 256.039 553.648 258.181 554.032C258.929 554.167 259.443 554.073 260.151 553.827L261.134 552.939L261.357 553.367L261.129 553.75C254.939 564.381 252.515 575.42 250.181 587.353C248.121 586.241 245.767 585.524 243.573 584.704C244.681 572.441 247.033 562.203 253.362 551.532Z"/>
	<path fill="#04495E" d="M248.316 716.428C250.527 723.52 254.123 730.675 255.79 737.844C255.894 737.977 255.999 738.108 256.101 738.242C262.783 747.013 266.608 759.526 272.628 769.201C299.352 812.158 335.342 847.113 386.029 858.986C381.593 862.558 378.043 866.205 375.072 871.089C372.357 875.551 369.387 886.586 365.675 889.404C361.479 892.59 354.7 892.026 349.733 891.508C341.957 890.698 334.034 888.436 326.829 885.437C311.092 878.886 287.084 863.554 276.202 850.278C263.491 837.805 252.164 818.101 247.218 801.238C247.614 800.804 249.283 799.006 249.356 798.517C249.823 795.42 245.908 780.055 245.23 775.696C244.341 769.978 244.363 755.182 245.306 749.632L245.932 749.831C245.943 749.728 245.966 749.626 245.965 749.522C245.946 743.277 247.271 737.54 247.717 731.367C248.076 726.407 247.573 721.349 248.316 716.428Z"/>
	<path fill="#1F97A5" d="M248.316 716.428C250.527 723.52 254.123 730.675 255.79 737.844C256.163 743.473 259.063 749.491 261.197 754.689C270.803 778.081 283.079 799.117 299.03 818.772C304.961 826.08 312.676 831.855 318.138 839.587C302.028 839.006 285.522 835.244 271.515 826.995C267.453 824.603 262.808 818.235 258.169 817.578C260.697 823.479 263.593 829.245 266.856 834.776C268.722 837.938 276.057 847.394 276.202 850.278C263.491 837.805 252.164 818.101 247.218 801.238C247.614 800.804 249.283 799.006 249.356 798.517C249.823 795.42 245.908 780.055 245.23 775.696C244.341 769.978 244.363 755.182 245.306 749.632L245.932 749.831C245.943 749.728 245.966 749.626 245.965 749.522C245.946 743.277 247.271 737.54 247.717 731.367C248.076 726.407 247.573 721.349 248.316 716.428Z"/>
	<path fill="#92F6FD" d="M247.218 801.238C247.614 800.804 249.283 799.006 249.356 798.517C249.823 795.42 245.908 780.055 245.23 775.696C244.341 769.978 244.363 755.182 245.306 749.632L245.932 749.831C245.935 766.835 249.217 803.821 258.169 817.578C260.697 823.479 263.593 829.245 266.856 834.776C268.722 837.938 276.057 847.394 276.202 850.278C263.491 837.805 252.164 818.101 247.218 801.238Z"/>
	<path fill="#1F97A5" d="M459.545 536.484L460.317 536.126C459.815 528.604 454.782 508.143 456.744 502.379C460.78 500.901 465.065 500.447 469.128 498.935C482.506 493.954 495.044 485.769 509.53 492.409C529.794 501.698 544.663 527.549 551.722 547.626C557.595 564.331 562.617 582.597 554.472 599.423C547.029 614.797 531.101 624.11 515.503 629.472C495.243 636.436 466.277 639.897 445.169 636.853C441.973 636.392 437.9 635.824 435.066 634.243C434.12 633.714 434.017 633.63 433.664 632.628C435.974 622.442 433.855 612.154 430.48 602.482C456.131 594.938 471.572 577.645 494.731 568.686C508.728 563.272 523.072 561.265 537.158 567.155C541.441 568.946 545.945 574.756 548.37 575.509C548.093 574.987 547.846 574.519 547.469 574.06C537.675 562.129 523.591 562.677 509.645 560.705C502.349 558.878 494.824 552 488.647 547.869C487.546 546.073 486.658 544.314 484.877 543.106L483.907 543.146C482.864 544.946 483.847 548.813 484.353 550.734C485.683 555.783 487.87 560.863 490.197 565.529C483.458 568.669 477.16 572.211 470.849 576.158C465.815 563.554 461.827 549.882 459.545 536.484Z"/>
	<path fill="#1F97A5" d="M552.792 640.979C558.43 651.356 565.955 662.904 568.901 674.348C574.357 686.561 580.043 698.49 584.155 711.263C587.419 721.398 589.452 731.761 591.836 742.122C591.575 743.053 591.231 743.624 590.715 744.414C586.979 750.128 583.023 768.514 580.849 776.012C572.617 804.399 550.994 832.265 521.089 839.205C505.921 842.725 489.652 839.447 476.553 831.205C466.21 824.697 455.134 812.059 452.448 799.879C452.193 798.72 451.973 797.555 451.758 796.389C451.069 782.724 458.615 771.914 460.153 758.855C463.16 747.988 479.868 721.86 486.584 711.571C489.975 706.377 494.369 700.733 496.765 695.009C497.079 693.936 497.999 692.868 498.622 691.931L498.883 691.952C500.395 687.091 518.811 661.475 523.031 655.166C533.433 650.778 543.064 646.91 552.792 640.979Z"/>
	<path fill="#64CFD2" d="M523.617 718.534C525.21 718.471 526.931 718.31 528.507 718.594C530.986 719.04 533.416 720.743 534.831 722.802C536.694 725.512 537.088 729.056 536.293 732.206C535.138 736.786 532.346 739.256 528.364 741.458C526.691 741.552 524.972 741.652 523.334 741.222C520.714 740.535 518.207 738.931 516.826 736.559C515.252 733.854 514.988 730.572 515.821 727.581C517.051 723.163 519.846 720.761 523.617 718.534Z"/>
	<path fill="#04495E" d="M552.792 640.979C558.43 651.356 565.955 662.904 568.901 674.348C545.209 677.002 520.96 682.81 498.883 691.952C500.395 687.091 518.811 661.475 523.031 655.166C533.433 650.778 543.064 646.91 552.792 640.979Z"/>
	<path fill="#FBF7DF" d="M243.869 671.415C245.968 671.506 248.088 671.679 250.186 671.7C254.097 671.74 256.126 670.11 258.796 667.479C264.427 676.082 271.075 683.802 277.622 691.702C281.693 704.808 295.736 717.584 307.567 723.81C326.64 733.847 347.666 733.91 367.921 727.495C385.498 721.927 400.714 711.445 412.571 697.347C417.085 691.979 421.05 686.185 425.438 680.718C443.191 688.471 461.858 692.419 481.279 692.082C484.587 692.025 496.721 690.047 498.622 691.931C497.999 692.868 497.079 693.936 496.765 695.009C494.369 700.733 489.975 706.377 486.584 711.571C479.868 721.86 463.16 747.988 460.153 758.855C457.332 762.608 456.259 766.425 454.148 770.468L453.919 770.201C453.629 768.721 453.564 768.764 454.443 767.514C454.466 767.483 454.497 767.459 454.523 767.431L453.555 768.416L453.586 768.14L452.753 768.484C449.271 776.589 446.922 784.801 444.41 793.229C428.157 798.867 416.278 804.843 398.603 807.546C360.787 813.33 319.566 800.518 290.775 775.488C287.453 772.6 284.132 769.611 281.174 766.351C277.178 761.944 272.929 755.77 268.145 752.369C268.017 752.278 267.885 752.193 267.755 752.105C253.269 728.771 247.239 698.33 243.869 671.415Z"/>
	<path fill="#2B023B" d="M452.753 768.484C456.84 753.768 486.427 707.047 496.765 695.009C494.369 700.733 489.975 706.377 486.584 711.571C479.868 721.86 463.16 747.988 460.153 758.855C457.332 762.608 456.259 766.425 454.148 770.468L453.919 770.201C453.629 768.721 453.564 768.764 454.443 767.514C454.466 767.483 454.497 767.459 454.523 767.431L453.555 768.416L453.586 768.14L452.753 768.484Z"/>
	<path fill="#931D2D" d="M693.047 624.993C691.8 613.136 691.557 600.959 691.092 589.044C690.039 562.048 689.506 534.527 692.298 507.618C694.565 485.76 701.555 463.435 712.283 444.242C715.021 439.343 718.379 434.896 721.362 430.158C723.66 426.509 725.403 422.534 727.695 418.878C733.337 409.877 742.096 401.642 750.313 395.019C767.587 381.096 795.903 367.295 818.651 369.848C847.662 373.103 865.004 397.967 876.463 422.249C878.561 426.695 879.936 433.621 883.063 437.169C883.228 437.356 883.406 437.531 883.577 437.712C886.573 444.617 887.385 452.643 888.179 460.059C872.146 436.719 857.358 423.066 831.309 411.102C831.429 411.21 831.547 411.32 831.668 411.426C840.039 418.813 861.405 430.883 863.716 442.61C863.23 444.26 863.642 445.017 864.065 446.671C864.96 450.166 866.242 453.636 866.913 457.173C871.526 481.483 870.546 506.87 864.152 530.749C862.864 535.56 861.474 540.763 859.395 545.275C857.328 549.76 848.558 562.237 848.617 565.956C848.064 567.528 846.507 569.324 845.538 570.715C837.144 582.762 825.158 592.175 813.359 600.693C821.996 588.151 832.67 570.755 837.389 556.418C845.78 530.925 844.973 500.189 832.703 476.048C823.565 458.07 807.822 444.145 788.55 437.982C770.639 432.254 753.288 434.669 736.782 443.187C736.678 443.314 736.577 443.443 736.471 443.568C732.645 448.102 727.316 451.292 723.332 455.81C720.695 458.801 718.35 462.138 716.316 465.564C713.82 469.769 704.16 488.94 704.316 492.973C704.327 493.233 704.356 493.493 704.376 493.753L704.514 493.199C705.036 491.157 705.989 489.524 706.408 487.488C707.914 480.169 719.218 462.356 725.721 457.846C726.272 457.464 726.818 457.278 727.445 457.063C707.25 478.812 697.891 506.491 699.037 536.093C699.13 538.489 699.307 540.886 699.475 543.278C699.442 543.448 699.406 543.617 699.375 543.787C697.743 552.833 708.302 600.794 710.487 613.075C721.668 675.913 714.968 759.482 658.111 799.643C639.102 813.07 616.143 820.318 592.916 820.619C593.643 817.991 594.581 815.582 595.649 813.08C603.038 792.232 603.755 756.689 597.08 735.451C616.934 729.295 632.62 717.527 644.226 700.178C647.05 695.955 649.067 691.237 651.831 686.971L652.121 686.531C652.118 686.78 652.119 687.029 652.112 687.277C651.743 699.495 641.06 711.552 632.531 719.204C657.409 707.513 669.287 691.436 684.165 669.522C690.55 653.41 692.179 642.214 693.047 624.993Z"/>
	<path fill="#47032F" d="M693.047 624.993C697.733 631.814 695.432 646.61 694.044 654.177C689.609 678.36 675.599 704.191 654.977 718.247C649.196 722.187 643.057 724.845 636.457 727.073C653.639 714.465 668.586 701.346 679.09 682.334C680.984 678.905 683.59 674.395 684.075 670.477C684.115 670.16 684.135 669.84 684.165 669.522C690.55 653.41 692.179 642.214 693.047 624.993Z"/>
	<path fill="#47032F" d="M595.649 813.08C612.344 812.667 630.162 807.406 644.647 799.19C657.206 792.066 668.237 782.888 677.152 771.499C705.484 735.302 713.162 680.544 709.25 635.797C704.918 586.227 689.092 543.536 703.223 493.435C708.516 474.669 719.163 452.995 736.782 443.187C736.678 443.314 736.577 443.443 736.471 443.568C732.645 448.102 727.316 451.292 723.332 455.81C720.695 458.801 718.35 462.138 716.316 465.564C713.82 469.769 704.16 488.94 704.316 492.973C704.327 493.233 704.356 493.493 704.376 493.753L704.514 493.199C705.036 491.157 705.989 489.524 706.408 487.488C707.914 480.169 719.218 462.356 725.721 457.846C726.272 457.464 726.818 457.278 727.445 457.063C707.25 478.812 697.891 506.491 699.037 536.093C699.13 538.489 699.307 540.886 699.475 543.278C699.442 543.448 699.406 543.617 699.375 543.787C697.743 552.833 708.302 600.794 710.487 613.075C721.668 675.913 714.968 759.482 658.111 799.643C639.102 813.07 616.143 820.318 592.916 820.619C593.643 817.991 594.581 815.582 595.649 813.08Z"/>
	<path fill="#97707F" d="M727.445 457.063C742.919 445.174 756.38 439.112 776.211 441.826C795.139 444.416 811.406 455.065 822.765 470.185C823.182 470.74 823.593 471.291 823.971 471.873C836.07 485.936 837.929 510.5 836.65 528.12C834.431 558.674 818.738 591.013 795.52 611.052C795.55 593.959 793.237 576.714 780.656 563.988C775.339 558.61 768.521 555.234 761.013 554.372L758.152 554.038C762.071 542.977 767.131 531.306 778.216 525.784C782.994 523.405 788.769 522.225 793.951 523.955C801.35 526.423 804.646 532.931 808.547 539.067C806.282 532.241 803.152 525.897 796.447 522.382C790.985 519.518 784.508 519.854 778.793 521.762C768.201 525.297 760.228 533.866 755.382 543.683C744.92 564.873 747.193 592.346 751.21 615.056C753.578 628.438 756.825 641.802 757.451 655.421C758.142 670.473 754.631 685.44 751.764 700.115C758.199 682.045 759.643 662.461 767.493 644.984C776.346 686.177 767.752 726.57 745.004 761.751C719.668 800.934 678.939 829.268 633.273 839.014C616.879 842.514 600.39 842.367 583.786 840.818C587.276 834.441 591.219 827.739 592.916 820.619C616.143 820.318 639.102 813.07 658.111 799.643C714.968 759.482 721.668 675.913 710.487 613.075C708.302 600.794 697.743 552.833 699.375 543.787C699.406 543.617 699.442 543.448 699.475 543.278C699.307 540.886 699.13 538.489 699.037 536.093C697.891 506.491 707.25 478.812 727.445 457.063Z"/>
	<path fill="#FBF7DF" d="M727.445 457.063C742.919 445.174 756.38 439.112 776.211 441.826C795.139 444.416 811.406 455.065 822.765 470.185C823.182 470.74 823.593 471.291 823.971 471.873C823.695 471.943 823.421 472.021 823.143 472.081C817.911 473.222 811.311 470.989 805.84 471.188C783.24 472.01 760.782 483.173 747.608 501.721C721.416 538.593 726.84 596.23 725.714 639.328C725.447 649.537 725.342 660.105 723.736 670.209C720.905 658.824 721.106 645.432 719.245 633.594C715.848 611.987 710.132 590.584 705.13 569.3C703.131 560.791 702.072 551.553 699.475 543.278C699.307 540.886 699.13 538.489 699.037 536.093C697.891 506.491 707.25 478.812 727.445 457.063Z"/>
	<path fill="#F46338" d="M641.872 352.992C657.934 331.454 688.788 314.346 714.508 308.062C746.73 300.19 778.56 304.061 806.982 321.424C815.132 325.946 822.448 332.355 829.582 338.314C836.15 342.935 842.669 347.927 849.791 351.666C840.566 350.481 807.139 345.014 800.386 346.45C810.324 348.883 819.459 351.015 827.431 357.777C833.884 362.559 840.353 367.315 846.154 372.895C863.77 389.84 878.148 413.725 883.577 437.712C883.406 437.531 883.228 437.356 883.063 437.169C879.936 433.621 878.561 426.695 876.463 422.249C865.004 397.967 847.662 373.103 818.651 369.848C795.903 367.295 767.587 381.096 750.313 395.019C742.096 401.642 733.337 409.877 727.695 418.878C725.403 422.534 723.66 426.509 721.362 430.158C718.379 434.896 715.021 439.343 712.283 444.242C701.555 463.435 694.565 485.76 692.298 507.618C689.506 534.527 690.039 562.048 691.092 589.044C691.557 600.959 691.8 613.136 693.047 624.993C692.179 642.214 690.55 653.41 684.165 669.522C669.287 691.436 657.409 707.513 632.531 719.204C641.06 711.552 651.743 699.495 652.112 687.277C652.119 687.029 652.118 686.78 652.121 686.531L651.831 686.971C649.067 691.237 647.05 695.955 644.226 700.178C632.62 717.527 616.934 729.295 597.08 735.451C596.795 734.241 596.366 733.074 595.972 731.895C595.634 728.125 594.391 723.976 593.436 720.301C585.921 691.388 571.472 663.548 557.602 637.213C562.478 631.542 566.02 626.485 569.32 619.707C574.371 623.005 579.736 625.679 585.206 628.196C584.406 620.247 582.325 613.131 579.397 605.717C582.454 606.346 585.504 606.99 588.549 607.678C591.517 601.406 581.601 590.069 580.414 583.64C581.127 569.54 562.572 534.714 555.711 521.717C556.98 516.186 556.575 509.686 556.783 504.004C557.39 487.435 558.503 471.094 564.595 455.458C566.883 454.423 568.931 452.826 570.782 451.151C584.838 438.431 589.124 420.393 590.059 402.217C592.237 404.664 593.756 407.043 597.232 407.498C598.701 407.021 599.441 406.629 600.111 405.179C604.091 396.566 600.207 380.114 597.184 371.665C601.878 366.989 604.687 360.449 609.224 355.508C625.241 338.066 643.873 324.08 664.421 312.415C669.239 309.679 674.053 306.741 679.199 304.661C674.267 318.815 660.15 328.613 650.124 339.04C643.463 345.966 637.741 353.376 633.446 361.988C636.099 358.827 638.709 355.664 641.872 352.992Z"/>
	<path fill="#931D2D" d="M762.563 343.239C776.093 332.773 792.056 328.248 808.882 332.741C816.026 334.648 822.099 337.484 829.582 338.314C836.15 342.935 842.669 347.927 849.791 351.666C840.566 350.481 807.139 345.014 800.386 346.45C810.324 348.883 819.459 351.015 827.431 357.777C820.369 356.84 814.008 352.559 807.35 350.261C803.678 348.994 799.64 348.842 795.879 347.774L795.581 347.01L796.482 345.446C786.146 341.739 773.415 343.108 762.563 343.239Z"/>
	<defs>
		<linearGradient id="gradient_4" gradientUnits="userSpaceOnUse" x1="720.15649" y1="346.39978" x2="707.93365" y2="310.33624">
			<stop offset="0" stop-color="#FFA35C"/>
			<stop offset="1" stop-color="#FF9266"/>
		</linearGradient>
	</defs>
	<path fill="url(#gradient_4)" d="M641.872 352.992C657.934 331.454 688.788 314.346 714.508 308.062C746.73 300.19 778.56 304.061 806.982 321.424C805.437 322.127 805.162 321.839 803.577 321.254C796.358 318.591 789.693 315.593 782.12 313.811C754.393 307.286 722.559 312.047 696.786 323.649C675.213 333.361 656.271 346.98 639.94 364.086C636.711 367.467 633.889 371.143 630.763 374.597C634.142 367.59 639.812 360.428 641.872 352.992Z"/>
	<path fill="#931D2D" d="M580.414 583.64C594.789 594.325 609.346 637.508 613.698 655.193C617.248 669.729 621.775 677.128 621.473 692.998C623.96 691.822 626.4 690.621 628.729 689.149C642.741 680.29 648.787 667.162 652.366 651.459L652.754 649.541L653.423 649.186C655.767 651.815 655.068 666.229 654.823 670.362C654.5 675.814 653.646 681.281 652.121 686.531L651.831 686.971C649.067 691.237 647.05 695.955 644.226 700.178C632.62 717.527 616.934 729.295 597.08 735.451C596.795 734.241 596.366 733.074 595.972 731.895C595.634 728.125 594.391 723.976 593.436 720.301C585.921 691.388 571.472 663.548 557.602 637.213C562.478 631.542 566.02 626.485 569.32 619.707C574.371 623.005 579.736 625.679 585.206 628.196C584.406 620.247 582.325 613.131 579.397 605.717C582.454 606.346 585.504 606.99 588.549 607.678C591.517 601.406 581.601 590.069 580.414 583.64Z"/>
	<path fill="#47032F" d="M652.366 651.459L652.754 649.541L653.423 649.186C655.767 651.815 655.068 666.229 654.823 670.362C654.5 675.814 653.646 681.281 652.121 686.531L651.831 686.971C649.067 691.237 647.05 695.955 644.226 700.178C632.62 717.527 616.934 729.295 597.08 735.451C596.795 734.241 596.366 733.074 595.972 731.895C600.32 728.425 606.867 726.398 611.829 723.647C624.9 716.399 630.042 710.407 638.272 698.401C641.888 693.126 645.219 688.078 647.674 682.137C650.889 674.356 655.804 659.669 652.366 651.459Z"/>
	<path fill="#47032F" d="M580.414 583.64C594.789 594.325 609.346 637.508 613.698 655.193C611.465 662.864 614.414 676.313 613.766 684.897C609.765 668.179 607.265 650.756 601.286 634.596C599.416 629.544 596.529 624.869 594.084 620.08C592.022 616.042 590.324 611.847 588.549 607.678C591.517 601.406 581.601 590.069 580.414 583.64Z"/>
	<path fill="#FBF7DF" d="M254.225 201.756C251.494 193.091 250.279 184.089 249.723 175.047C247.482 138.639 259.117 102.607 283.37 75.2603C287.872 70.1842 295.619 61.6958 302.919 61.4966C307.024 61.3846 309.825 64.2582 311.585 67.6819C314.607 73.5618 314.812 80.9522 316.215 87.3531C320.55 107.13 333.874 124.743 348.327 138.346C355.94 137.134 363.615 136.229 371.271 135.334C370.304 133.903 369.19 132.334 368.773 130.631C368.442 129.282 368.751 128.319 369.424 127.139C370.411 126.304 371.17 125.839 372.459 125.597C378.636 124.438 388.69 127.607 393.885 130.908C392.198 131.166 390.712 131.277 389.006 131.188C392.787 133.261 396.386 135.541 399.998 137.889C400.875 138.046 400.361 138.022 401.536 137.787C401.62 135.375 399.591 131.941 398.656 129.613C398.865 129.528 399.073 129.438 399.284 129.357C404.748 127.263 405.866 120.722 411.082 118.376C410.898 122.697 411.649 127.138 413.234 131.17C417.136 140.634 425.584 146.658 434.729 150.45C440.157 152.702 446.808 154.065 451.501 157.641L450.515 158.2C452.674 161.048 467.739 169.902 472.316 173.263C478.031 177.46 483.56 182.049 488.621 187.014C518.304 216.139 532.959 263.857 541.212 303.657C542.81 311.36 543.62 319.138 545.074 326.837L546.391 327.228C551.541 329.064 556.676 330.846 561.636 333.161C571.65 335.252 582.812 342.239 590.83 348.525C583.48 351.395 577.417 351.75 569.585 351.391C582.096 358.691 590.408 367.58 594.268 381.864C595.336 385.819 596.614 394.16 594.654 397.889C594.438 398.301 594.243 398.429 593.923 398.707C589.435 397.218 581.891 384.467 578.062 380.387C579.198 382.699 580.438 385.004 581.417 387.386C577.718 393.877 580.478 413.243 571.701 419.112C570.151 419.222 570.012 418.761 568.85 417.797C568.874 412.388 568.936 406.977 568.807 401.57C566.219 415.01 562.592 434.431 551.463 443.699C545.283 444.765 539.555 448.36 533.161 447.95C535.655 443.161 537.957 438.369 540.002 433.365C525.359 454.667 515.163 458.032 494.329 470.243C496.544 471.702 501.281 470.563 503.78 470.072L504.425 469.94C494.754 477.112 467.503 484.66 455.569 487.868C455.423 490.109 455.697 494.119 454.682 496L454.859 501.417C455.931 512.975 456.771 525.178 459.545 536.484C461.827 549.882 465.815 563.554 470.849 576.158C461.734 582.534 452.436 588.213 442.096 592.427C437.431 594.328 432.461 595.481 427.884 597.524C427.733 597.591 427.584 597.662 427.433 597.731C424.881 592.538 421.415 587.477 417.929 582.866C411.166 573.922 402.646 566.736 391.241 565.14L387.435 566.982L385.288 557.012C386.343 554.943 387.463 552.772 387.311 550.382C387.019 545.805 377.814 549.795 374.966 547.377C372.544 547.852 370.226 547.344 367.788 547.632C365.474 544.148 362.42 541.086 359.354 538.261C345.667 525.649 326.778 519.054 308.214 519.838C288.755 520.659 271.291 530.353 258.35 544.567C256.434 545.391 255.28 546.738 253.123 547.117L252.342 546.419L252.697 544.485C249.982 548.149 247.383 551.916 245.26 555.961C238.792 554.105 233.093 554.68 227.085 557.863C224.953 558.992 222.71 560.517 220.952 562.171L219.638 560.932C214.243 556.303 203.891 557.313 197.354 555.711C195.614 556.154 193.649 556.707 191.874 556.298C194.947 552.721 206.468 549.113 211.094 543.977L210.18 543.861C208.23 545.097 206.2 546.215 204.001 546.952C202.679 547.394 202.045 547.593 200.801 546.943C202.106 544.769 204.996 544.339 206.065 541.935C206.194 541.646 206.307 541.35 206.428 541.057C208.712 537.808 215 533.589 218.25 530.51C227.783 521.48 236.805 511.827 246.631 503.125C257.228 493.741 268.615 485.653 280.194 477.549C270.493 473.652 260.388 469.726 251.495 464.167C249.54 463.635 247.273 462.031 245.508 461.009C232.222 453.313 220.938 443.444 209.742 433.033C211.071 438.805 212.099 444.664 213.398 450.45C208.115 447.972 203.107 445.123 198.684 441.285C185.705 430.022 179.489 413.195 178.357 396.38C175.666 399.735 173.151 403.255 170.576 406.7C169.391 404.278 168.276 401.876 167.467 399.298C162.342 382.972 167.568 369.267 175.142 354.855C171.448 356.845 168.341 359.637 165.148 362.326C164.805 357.823 164.679 353.693 165.67 349.262C168.582 336.234 178.464 328.241 189.208 321.444C185.253 319.463 180.344 317 177.773 313.265C176.905 312.003 176.896 311.202 177.226 309.752C178.252 308.851 178.598 308.622 179.991 308.387C185.208 307.507 190.76 307.696 196.05 307.096C203.314 306.273 210.484 304.738 217.738 303.803C224.73 268.129 235.931 233.252 254.225 201.756Z"/>
	<path fill="#F46338" d="M222.32 336.644C223.248 338.975 221.811 342.935 221.988 345.637C224.308 349.847 227.504 353.488 232.277 354.925C235.891 356.012 240.014 355.274 243.262 353.45C245.939 351.947 250.112 346.855 251.406 346.425C251.603 349.713 251.449 352.291 249.719 355.181C247.828 358.341 244.647 360.247 241.119 361.085C235.921 362.32 230.314 361.184 225.878 358.248C222.37 355.927 219.728 352.272 219.048 348.08C218.375 343.933 219.864 339.929 222.32 336.644Z"/>
	<path fill="#F46338" d="M456.216 351.034C456.293 351.246 456.373 351.457 456.447 351.67C456.775 352.613 456.921 353.569 457.108 354.547C457.942 358.913 459.761 361.793 463.459 364.35C469.556 368.566 478.557 369.385 485.692 367.874C489.2 367.132 492.418 365.752 495.671 364.285C498.486 363.015 499.258 359.738 502.231 358.851C502.017 359.66 501.791 360.466 501.509 361.254C499.595 366.591 494.982 370.748 489.852 372.96C482.228 376.246 472.702 376.091 465.113 372.76C460.663 370.806 456.506 367.723 454.818 362.988C453.274 358.659 454.273 355.009 456.216 351.034Z"/>
	<path fill="#FC8771" d="M222.32 336.644C225.216 333.576 227.85 331.803 232.202 331.707C237.437 331.591 242.902 333.995 246.608 337.638C248.97 339.96 250.83 343.135 251.406 346.425C250.112 346.855 245.939 351.947 243.262 353.45C240.014 355.274 235.891 356.012 232.277 354.925C227.504 353.488 224.308 349.847 221.988 345.637C221.811 342.935 223.248 338.975 222.32 336.644Z"/>
	<path fill="#F2B18C" d="M230.568 335.547C232.885 335.491 235.047 335.47 237.319 336.046C240.109 336.753 243.755 337.604 245.287 340.256C245.183 341.841 245.011 341.765 243.834 342.873C239.766 343.159 235.168 342.899 231.346 341.345C229.768 340.704 229.112 340.048 228.46 338.5C228.9 336.935 229.408 336.641 230.568 335.547Z"/>
	<path fill="#64CFD2" d="M287.08 181.872C293.541 182.424 299.871 183.568 304.258 188.846C305.526 190.372 306.422 192.094 307.306 193.858C310.912 199.95 314.002 213.401 312.136 220.289C311.846 221.359 311.382 222.397 310.671 223.251L310.227 228.657C307.901 218.337 305.339 205.461 295.789 199.237C292.12 196.846 288.017 196.165 283.755 197.141C267.359 200.894 258.371 218.024 249.159 230.385C247.225 233.903 245.241 238.21 242.262 240.969C246.081 223.247 262.836 196.944 276.762 185.234L277.103 184.944C280.465 183.459 283.478 182.546 287.08 181.872Z"/>
	<path fill="#92F6FD" d="M287.08 181.872C293.541 182.424 299.871 183.568 304.258 188.846C305.526 190.372 306.422 192.094 307.306 193.858C305.562 194.858 295.391 185.519 292.219 184.601C286.352 182.902 282.206 188.895 277.107 188.87C276.347 188.867 276.514 188.749 275.936 188.1L276.762 185.234L277.103 184.944C280.465 183.459 283.478 182.546 287.08 181.872Z"/>
	<path fill="#47032F" d="M249.159 230.385C249.589 226.2 252.156 221.718 254.309 218.155C260.487 207.936 271.964 192.954 284.296 190.134C288.655 189.137 293.025 189.985 296.732 192.469C306.009 198.684 308.79 213.092 310.671 223.251L310.227 228.657C307.901 218.337 305.339 205.461 295.789 199.237C292.12 196.846 288.017 196.165 283.755 197.141C267.359 200.894 258.371 218.024 249.159 230.385Z"/>
	<path fill="#FC8771" d="M456.216 351.034C458.415 346.369 462.554 343.242 467.357 341.554C475.644 338.641 486.087 339.617 493.848 343.673C497.497 345.58 501.104 348.413 502.18 352.574C502.615 354.256 502.871 357.207 502.231 358.851C499.258 359.738 498.486 363.015 495.671 364.285C492.418 365.752 489.2 367.132 485.692 367.874C478.557 369.385 469.556 368.566 463.459 364.35C459.761 361.793 457.942 358.913 457.108 354.547C456.921 353.569 456.775 352.613 456.447 351.67C456.373 351.457 456.293 351.246 456.216 351.034Z"/>
	<path fill="#F2B18C" d="M473.436 342.609C476.982 342.443 480.39 342.594 483.861 343.338C488.367 344.305 493.633 346.135 496.224 350.154C496.371 351.265 496.552 351.843 495.73 352.78C493.811 354.965 489.702 355.386 486.999 355.916C482.009 356.373 476.937 356.662 472.016 355.487C468.537 354.656 464.788 353.122 462.838 349.978C462.707 348.777 462.599 348.304 463.422 347.279C465.379 344.84 470.468 343.272 473.436 342.609Z"/>
	<path fill="#47032F" d="M438.513 243.602C444.399 242.744 450.218 243.892 455.414 246.789C465.491 252.405 471.786 263.054 474.746 273.917C478.689 288.39 477.856 305.91 470.153 319.054C464.494 328.711 456.199 333.652 445.56 336.379C438.824 336.888 431.896 335.646 426.081 332.108C416.857 326.498 411.031 316.719 408.547 306.395C404.945 291.424 407.043 273.658 415.285 260.511C420.878 251.588 428.222 246.018 438.513 243.602Z"/>
	<path fill="#FBF7DF" d="M448.667 308.235C449.7 308.55 451.311 309.106 451.973 310.071C452.535 310.889 452.732 311.441 452.679 312.412C452.558 314.665 451.061 316.054 449.504 317.501C448.454 317.081 447.134 316.398 446.309 315.617C445.411 314.766 445.048 313.605 445.294 312.387C445.648 310.636 447.406 309.341 448.667 308.235Z"/>
	<path fill="#FBF7DF" d="M429.158 256.959C431.393 257.295 433.708 257.577 435.814 258.437C439.169 259.808 441.904 262.618 443.16 266.016C444.626 269.987 444.306 274.72 442.516 278.534C440.917 281.94 438.016 284.744 434.38 285.857C429.436 287.371 425.445 285.306 421.153 283.13C418.561 292.67 417.481 302.299 421.035 311.768C424.378 320.676 430.62 325.823 439.076 329.715C443.817 330.807 448.666 330.734 453.501 330.72C448.541 332.258 443.717 333.024 438.589 331.755C431.735 330.058 426.534 325.25 422.898 319.393C414.743 306.258 414.611 286.821 418.169 272.227C419.833 265.4 423.143 260.577 429.158 256.959Z"/>
	<path fill="#47032F" d="M288.048 321.483C286.424 322.305 284.75 323.21 283.012 323.764C276.971 325.689 270.35 325.508 264.673 322.536C256.537 318.276 251.797 309.716 249.158 301.249C244.52 286.369 246.782 269.136 254.032 255.449C258.32 247.352 265.245 239.735 274.278 237.098C279.913 235.453 285.754 235.801 290.852 238.846C298.399 243.354 302.642 252.928 304.757 261.124C309.319 278.796 305.99 296.336 296.769 311.935L307.373 309.216C327.391 306.377 342.723 310.685 359.297 322.028C360.491 323.373 361.723 324.696 362.788 326.147C354.079 337.463 341.603 345.313 328.986 351.719C326.574 352.499 323.133 353.159 321.543 355.278C321.052 354.637 320.637 354.317 319.998 353.841L318.096 354.213L313.038 354.613L312.361 354.318C309.51 352.989 307.088 350.999 304.594 349.11C296.529 340.377 290.72 333.198 288.048 321.483Z"/>
	<path fill="#FBF7DF" d="M287.205 297.297C288.303 297.417 289.595 297.61 290.501 298.304C291.137 298.792 291.563 299.471 291.638 300.259C291.86 302.604 290.355 304.417 289.049 306.205L287.667 306.273C286.324 305.563 285.859 305.435 285.328 303.912C284.53 301.622 285.972 299.076 287.205 297.297Z"/>
	<path fill="#931D2D" d="M291.532 318.471C297.016 322.367 300.092 327.681 304.316 332.762C308.073 337.282 312.425 340.672 317.402 343.742C324.939 339.757 331.884 334.737 339.473 330.871C345.168 327.97 350.873 326.42 356.698 324.084C357.857 325.158 358.088 325.134 358.252 326.677C355.027 334.757 329.469 349.248 321.27 352.827C320.208 353.291 319.133 353.693 318.096 354.213L313.038 354.613L312.361 354.318C311.102 350.534 302.502 343.203 299.633 339.33C295.917 334.314 290.605 324.85 291.532 318.471Z"/>
	<path fill="#FBF7DF" d="M269.412 246.499C271.087 246.432 272.121 246.336 273.562 247.268C274.4 249.114 273.959 250.501 273.755 252.477C274.999 253.156 276.283 253.757 277.523 254.441C280.639 256.162 282.959 258.949 283.89 262.405C284.894 266.131 284.175 270.283 282.215 273.58C280.245 276.893 277.068 279.535 273.227 280.29C270.647 280.798 268.046 280.358 265.906 278.795C261.831 275.818 260.744 270.49 260.102 265.796C259.085 268.858 258.119 271.912 257.461 275.075C255.182 286.043 255.59 299.187 262.165 308.714C265.912 314.145 271.103 316.718 277.442 317.83C284.495 318.254 286.269 315.066 291.748 311.866C290.366 314.486 287.75 316.841 285.179 318.257C280.775 320.682 275.699 321.482 270.824 319.973C264.237 317.934 259.727 312.07 256.688 306.171C250.511 294.182 249.199 279.322 253.328 266.457C256.176 257.584 261.013 250.77 269.412 246.499Z"/>
	<path fill="#F46338" d="M291.532 318.471C305.182 310.483 321.1 310.858 336.09 314.751C343.461 316.665 350.432 319.744 356.698 324.084C350.873 326.42 345.168 327.97 339.473 330.871C331.884 334.737 324.939 339.757 317.402 343.742C312.425 340.672 308.073 337.282 304.316 332.762C300.092 327.681 297.016 322.367 291.532 318.471Z"/>
	<path fill="#F2B18C" d="M317.012 315.665C319.701 315.49 322.636 315.342 325.306 315.684C326.875 315.885 327.74 316.172 328.724 317.418C328.694 317.612 328.686 317.81 328.635 318C328.091 320.053 325.584 321.355 323.931 322.434C322.707 322.584 321.375 322.763 320.147 322.619C317.824 322.348 313.532 320.519 312.273 318.452C311.857 317.769 312.085 317.552 312.248 316.841C313.602 315.701 315.324 315.805 317.012 315.665Z"/>
	<path fill="#47032F" d="M264.324 347.639L263.567 347.734C262.033 347.918 260.672 348.222 259.194 347.592L258.649 346.673C258.998 345.469 259.306 344.976 260.447 344.361C262.991 342.99 266.543 343.208 269.175 344.165C272.852 345.502 275.142 348.071 277.816 350.758C274.81 349.59 271.814 348.387 268.758 347.356C270.873 351.734 272.974 356.816 276.103 360.548C282.606 362.912 287.626 368.59 295.167 367.967C300.075 367.562 303.143 364.464 306.183 360.975C306.092 356.858 305.561 353.103 304.594 349.11C307.088 350.999 309.51 352.989 312.361 354.318L313.038 354.613L318.096 354.213L319.998 353.841C320.637 354.317 321.052 354.637 321.543 355.278C323.133 353.159 326.574 352.499 328.986 351.719C327.783 354.372 326.724 357.019 325.758 359.768C330.516 367.21 336.736 370.903 345.246 372.768C358.838 375.747 376.993 373.846 388.766 366.002C391.725 364.03 395.258 361.066 396.673 357.722C393.818 358.215 390.3 359.195 387.432 358.862L387.045 358.06C388.867 355.708 395.011 354.029 397.962 353.705C407.024 352.712 416.225 354.336 423.32 360.373C424.608 361.468 425.768 362.737 426.92 363.971C421.8 361.685 416.641 360.135 411.245 358.667C406.498 387.443 394.251 417.793 369.719 435.41C359.879 442.476 347.747 446.009 335.687 443.91C321.564 441.452 310.127 431.335 302.135 419.904C292.478 406.09 286.676 390.632 282.923 374.318C272.311 365.603 270.327 359.43 264.324 347.639Z"/>
	<path fill="#F2B18C" d="M304.594 349.11C307.088 350.999 309.51 352.989 312.361 354.318L313.038 354.613C314.813 356.525 315.994 359.89 315.874 362.53C315.756 365.137 314.29 367.388 312.362 369.066C307.813 373.023 301.16 374.642 295.247 373.981C288.42 373.219 282.459 369.583 278.329 364.161C277.483 363.05 276.702 361.812 276.103 360.548C282.606 362.912 287.626 368.59 295.167 367.967C300.075 367.562 303.143 364.464 306.183 360.975C306.092 356.858 305.561 353.103 304.594 349.11Z"/>
	<path fill="#F2B18C" d="M321.543 355.278C323.133 353.159 326.574 352.499 328.986 351.719C327.783 354.372 326.724 357.019 325.758 359.768C330.516 367.21 336.736 370.903 345.246 372.768C358.838 375.747 376.993 373.846 388.766 366.002C391.725 364.03 395.258 361.066 396.673 357.722C399.837 357.485 402.875 357.513 406.043 357.679C405.263 358.519 404.468 359.344 403.644 360.141C390.231 373.127 374.506 381.009 355.562 380.654C344.86 380.454 331.55 377.629 323.99 369.433C321.749 367.003 318.416 362.445 318.818 358.987C319.026 357.192 320.256 356.353 321.543 355.278Z"/>
	<path fill="#F46338" d="M321.51 432.206C324.951 425.642 329.549 420.226 335.732 416.098C352.229 405.086 369.295 405.513 387.976 409.272C378.025 422.394 365.147 436.066 347.953 438.386C338.201 439.702 329.824 437.164 321.51 432.206Z"/>
	<path fill="#931D2D" d="M321.51 432.206C319.813 431.007 318.228 429.273 317.527 427.293C316.33 423.914 317.232 420.563 318.791 417.464C324.844 405.436 337.647 397.399 350.015 393.163C365.38 387.9 382.576 385.796 397.508 393.107C395.179 398.959 391.836 404.313 387.976 409.272C369.295 405.513 352.229 405.086 335.732 416.098C329.549 420.226 324.951 425.642 321.51 432.206Z"/>
	<path fill="#C29C92" d="M561.636 333.161C571.65 335.252 582.812 342.239 590.83 348.525C583.48 351.395 577.417 351.75 569.585 351.391C582.096 358.691 590.408 367.58 594.268 381.864C595.336 385.819 596.614 394.16 594.654 397.889C594.438 398.301 594.243 398.429 593.923 398.707C589.435 397.218 581.891 384.467 578.062 380.387C579.198 382.699 580.438 385.004 581.417 387.386C577.718 393.877 580.478 413.243 571.701 419.112C570.151 419.222 570.012 418.761 568.85 417.797C568.874 412.388 568.936 406.977 568.807 401.57C566.219 415.01 562.592 434.431 551.463 443.699C545.283 444.765 539.555 448.36 533.161 447.95C535.655 443.161 537.957 438.369 540.002 433.365C525.359 454.667 515.163 458.032 494.329 470.243C489.977 471.506 485.561 473.958 481.314 475.648C473.781 478.644 465.911 481.105 458.04 483.028C409.327 494.926 348.906 492.034 300.823 478.291C291.736 475.693 282.948 472.216 274.125 468.85C266.025 464.525 257.569 460.916 249.534 456.418C233.773 447.596 220.451 435.958 207.332 423.689C205.785 428.648 204.857 433.503 204.371 438.674C193.89 428.043 188.529 417.878 184.76 403.527C187.005 405.503 188.79 408.145 190.794 410.376C193.493 413.381 196.449 415.945 199.581 418.484C200.58 413.468 202.622 408.952 204.723 404.316C209.955 411.33 215.639 417.608 222.439 423.15C270.917 462.66 339.855 474.261 400.572 468.278C448.653 463.54 507.581 447.303 539.366 408.185C552.845 391.596 554.021 374.943 551.815 354.463C556.437 362.498 561.641 370.028 565.998 378.257C563.063 359.603 552.999 349.717 538.8 338.343C552.034 341.737 562.06 343.73 575.769 341.729C570.828 339.244 565.49 337.265 561.636 333.161Z"/>
	<path fill="#1F97A5" d="M398.656 129.613C398.865 129.528 399.073 129.438 399.284 129.357C404.748 127.263 405.866 120.722 411.082 118.376C410.898 122.697 411.649 127.138 413.234 131.17C417.136 140.634 425.584 146.658 434.729 150.45C440.157 152.702 446.808 154.065 451.501 157.641L450.515 158.2C452.674 161.048 467.739 169.902 472.316 173.263C478.031 177.46 483.56 182.049 488.621 187.014C518.304 216.139 532.959 263.857 541.212 303.657C542.81 311.36 543.62 319.138 545.074 326.837C525.649 322.859 509.838 323.375 490.353 324.781C487.955 325.932 485.251 326.689 482.739 327.575C486.154 325.231 489.297 322.771 492.199 319.808C501.746 310.064 505.171 296.537 505.027 283.197C504.772 259.517 496.121 234.784 478.94 218.063C468.066 207.48 453.12 199.492 437.64 199.817C423.181 200.12 408.994 207.845 399.082 218.076C376.799 238.767 362.932 292.493 359.297 322.028C342.723 310.685 327.391 306.377 307.373 309.216C308.126 302.525 309.816 295.804 310.725 289.094C313.461 268.907 313.504 248.779 310.227 228.657L310.671 223.251C311.382 222.397 311.846 221.359 312.136 220.289C314.002 213.401 310.912 199.95 307.306 193.858C306.422 192.094 305.526 190.372 304.258 188.846C299.871 183.568 293.541 182.424 287.08 181.872C287.283 180.955 287.098 181.283 287.75 180.532C290.723 177.103 296.233 174.464 300.136 172.135C327.269 155.951 350.769 148.863 381.821 144.094C384.759 143.643 391.32 141.865 393.25 141.712C394.572 141.608 394.002 141.907 394.88 140.987L394.654 140.431L391.445 139.34L391.541 138.55C394.168 138.753 397.57 139.054 399.998 137.889C400.875 138.046 400.361 138.022 401.536 137.787C401.62 135.375 399.591 131.941 398.656 129.613Z"/>
	<path fill="#92F6FD" d="M398.111 217.66C398.079 216.961 398.123 216.33 398.288 215.647C400.187 207.758 411.023 197.421 417.926 193.174C429.217 186.228 443.674 184.347 456.486 187.532C465.419 189.753 473.691 194.114 478.513 202.149C468.538 197.041 466.435 194.409 454.902 191.103L452.84 192.679C440.614 189.749 429.293 192.669 418.733 199.2C413.624 202.36 409.085 206.149 404.622 210.15C402.471 212.651 400.378 215.267 398.111 217.66Z"/>
	<path fill="#64CFD2" d="M404.622 210.15C404.534 209.084 404.737 208.4 405.22 207.436C408.98 199.929 427.102 191.111 434.89 188.661C443.42 185.978 446.595 186.832 454.405 190.858C454.569 190.942 454.736 191.021 454.902 191.103L452.84 192.679C440.614 189.749 429.293 192.669 418.733 199.2C413.624 202.36 409.085 206.149 404.622 210.15Z"/>
	<path fill="#47032F" d="M404.622 210.15C409.085 206.149 413.624 202.36 418.733 199.2C429.293 192.669 440.614 189.749 452.84 192.679C476.165 202.798 491.904 221.183 501.218 244.676C508.737 263.64 511.844 288.001 503.452 307.219C500.407 314.191 495.603 319.409 490.353 324.781C487.955 325.932 485.251 326.689 482.739 327.575C486.154 325.231 489.297 322.771 492.199 319.808C501.746 310.064 505.171 296.537 505.027 283.197C504.772 259.517 496.121 234.784 478.94 218.063C468.066 207.48 453.12 199.492 437.64 199.817C423.181 200.12 408.994 207.845 399.082 218.076L398.111 217.66C400.378 215.267 402.471 212.651 404.622 210.15Z"/>
	<path fill="#2B023B" d="M254.225 201.756C251.494 193.091 250.279 184.089 249.723 175.047C247.482 138.639 259.117 102.607 283.37 75.2603C287.872 70.1842 295.619 61.6958 302.919 61.4966C307.024 61.3846 309.825 64.2582 311.585 67.6819C314.607 73.5618 314.812 80.9522 316.215 87.3531C320.55 107.13 333.874 124.743 348.327 138.346C355.94 137.134 363.615 136.229 371.271 135.334C370.304 133.903 369.19 132.334 368.773 130.631C368.442 129.282 368.751 128.319 369.424 127.139C370.411 126.304 371.17 125.839 372.459 125.597C378.636 124.438 388.69 127.607 393.885 130.908C392.198 131.166 390.712 131.277 389.006 131.188C392.787 133.261 396.386 135.541 399.998 137.889C397.57 139.054 394.168 138.753 391.541 138.55L391.445 139.34L394.654 140.431L394.88 140.987C394.002 141.907 394.572 141.608 393.25 141.712C391.32 141.865 384.759 143.643 381.821 144.094C350.769 148.863 327.269 155.951 300.136 172.135C296.233 174.464 290.723 177.103 287.75 180.532C287.098 181.283 287.283 180.955 287.08 181.872C283.478 182.546 280.465 183.459 277.103 184.944L276.762 185.234C262.836 196.944 246.081 223.247 242.262 240.969C233.96 262.138 226.864 284.419 223.811 307.012C211.577 309.99 199.449 312.657 186.903 313.955C196.825 317.923 203.815 317.743 214.314 316.187C198.174 323.885 178.333 330.691 171.861 349.154C171.692 349.635 171.532 350.12 171.372 350.604C179.79 347.843 186.679 344.315 194.157 339.584C181.628 353.248 171.059 368.058 171.703 387.488C171.78 389.819 172.028 392.179 172.335 394.492C176.282 390.332 179.52 385.56 183.526 381.478C183.399 389.018 183.543 396.048 184.76 403.527C188.529 417.878 193.89 428.043 204.371 438.674C204.857 433.503 205.785 428.648 207.332 423.689C220.451 435.958 233.773 447.596 249.534 456.418C257.569 460.916 266.025 464.525 274.125 468.85C282.948 472.216 291.736 475.693 300.823 478.291C348.906 492.034 409.327 494.926 458.04 483.028C465.911 481.105 473.781 478.644 481.314 475.648C485.561 473.958 489.977 471.506 494.329 470.243C496.544 471.702 501.281 470.563 503.78 470.072L504.425 469.94C494.754 477.112 467.503 484.66 455.569 487.868C455.423 490.109 455.697 494.119 454.682 496L454.859 501.417C455.931 512.975 456.771 525.178 459.545 536.484C461.827 549.882 465.815 563.554 470.849 576.158C461.734 582.534 452.436 588.213 442.096 592.427C437.431 594.328 432.461 595.481 427.884 597.524C427.733 597.591 427.584 597.662 427.433 597.731C424.881 592.538 421.415 587.477 417.929 582.866C411.166 573.922 402.646 566.736 391.241 565.14L387.435 566.982L385.288 557.012C386.343 554.943 387.463 552.772 387.311 550.382C387.019 545.805 377.814 549.795 374.966 547.377C372.544 547.852 370.226 547.344 367.788 547.632C365.474 544.148 362.42 541.086 359.354 538.261C345.667 525.649 326.778 519.054 308.214 519.838C288.755 520.659 271.291 530.353 258.35 544.567C256.434 545.391 255.28 546.738 253.123 547.117L252.342 546.419L252.697 544.485C249.982 548.149 247.383 551.916 245.26 555.961C238.792 554.105 233.093 554.68 227.085 557.863C224.953 558.992 222.71 560.517 220.952 562.171L219.638 560.932C214.243 556.303 203.891 557.313 197.354 555.711C195.614 556.154 193.649 556.707 191.874 556.298C194.947 552.721 206.468 549.113 211.094 543.977L210.18 543.861C208.23 545.097 206.2 546.215 204.001 546.952C202.679 547.394 202.045 547.593 200.801 546.943C202.106 544.769 204.996 544.339 206.065 541.935C206.194 541.646 206.307 541.35 206.428 541.057C208.712 537.808 215 533.589 218.25 530.51C227.783 521.48 236.805 511.827 246.631 503.125C257.228 493.741 268.615 485.653 280.194 477.549C270.493 473.652 260.388 469.726 251.495 464.167C249.54 463.635 247.273 462.031 245.508 461.009C232.222 453.313 220.938 443.444 209.742 433.033C211.071 438.805 212.099 444.664 213.398 450.45C208.115 447.972 203.107 445.123 198.684 441.285C185.705 430.022 179.489 413.195 178.357 396.38C175.666 399.735 173.151 403.255 170.576 406.7C169.391 404.278 168.276 401.876 167.467 399.298C162.342 382.972 167.568 369.267 175.142 354.855C171.448 356.845 168.341 359.637 165.148 362.326C164.805 357.823 164.679 353.693 165.67 349.262C168.582 336.234 178.464 328.241 189.208 321.444C185.253 319.463 180.344 317 177.773 313.265C176.905 312.003 176.896 311.202 177.226 309.752C178.252 308.851 178.598 308.622 179.991 308.387C185.208 307.507 190.76 307.696 196.05 307.096C203.314 306.273 210.484 304.738 217.738 303.803C224.73 268.129 235.931 233.252 254.225 201.756Z"/>
	<path fill="#64CFD2" d="M391.541 138.55C385.911 136.587 379.873 135.395 374.832 132.01C373.741 131.278 373.29 130.888 373.039 129.603C373.446 129.176 373.492 129.077 374.082 128.751C378.314 126.412 385.022 129.733 389.006 131.188C392.787 133.261 396.386 135.541 399.998 137.889C397.57 139.054 394.168 138.753 391.541 138.55Z"/>
	<path fill="#F46338" d="M260.82 192.049L260.145 192.745L259.125 192.66C255.247 187.568 255.285 163.951 255.795 157.261C257.924 129.363 268.409 101.878 287.031 80.8042C289.683 77.8025 292.397 74.368 295.507 71.8382C298.191 69.6539 300.552 68.2786 304.063 68.6443C303.946 68.8363 303.835 69.0319 303.712 69.2204C302.123 71.6605 291.948 77.3434 288.147 82.2635C264.933 112.318 253.818 150.606 260.075 188.244C260.287 189.52 260.539 190.787 260.82 192.049Z"/>
	<path fill="#56546C" d="M254.886 523.535C265.478 515.737 272.699 501.264 286.673 498.648C281.846 506.886 277.751 516.885 271.637 524.146C268.653 527.691 265.007 530.618 261.514 533.641C259.088 530.515 256.305 527.263 254.886 523.535Z"/>
	<path fill="#FBF7DF" d="M300.695 487.863C303.247 489.725 307.509 500.15 309.582 503.592C311.794 507.266 314.235 510.708 316.824 514.123C308.048 514.363 300.016 515.357 291.474 517.382C287.372 518.68 283.435 520.096 279.498 521.832C284.501 509.833 292.361 497.777 300.695 487.863Z"/>
	<path fill="#931D2D" d="M287.481 126.149L287.778 126.49C293.583 133.275 295.343 139.205 305.478 140.003C313.412 140.628 324.642 138.052 330.732 132.718C331.189 132.318 331.609 131.879 331.999 131.414C335.289 134.328 338.329 137.529 341.417 140.654C329.338 143.987 308.398 149.296 299.892 158.375C292.049 149.19 288.827 137.926 287.481 126.149Z"/>
	<path fill="#64CFD2" d="M277.103 184.944C295.343 162.23 334.629 146.65 363.061 141.989C372.294 140.475 381.711 141.001 390.824 139.453C391.031 139.418 391.238 139.377 391.445 139.34L394.654 140.431L394.88 140.987C394.002 141.907 394.572 141.608 393.25 141.712C391.32 141.865 384.759 143.643 381.821 144.094C350.769 148.863 327.269 155.951 300.136 172.135C296.233 174.464 290.723 177.103 287.75 180.532C287.098 181.283 287.283 180.955 287.08 181.872C283.478 182.546 280.465 183.459 277.103 184.944Z"/>
	<path fill="#97707F" d="M286.235 480.975C290.456 481.76 294.647 482.873 298.829 483.854C294.494 488.548 290.744 493.73 286.673 498.648C272.699 501.264 265.478 515.737 254.886 523.535C252.447 518.802 250.528 514.972 251.085 509.482C253.195 507.366 256.643 504.596 257.269 501.657C261.19 496.713 280.223 484.773 286.235 480.975Z"/>
	<path fill="#1F97A5" d="M257.269 501.657C256.643 504.596 253.195 507.366 251.085 509.482C250.528 514.972 252.447 518.802 254.886 523.535C256.305 527.263 259.088 530.515 261.514 533.641C258.432 537.171 255.432 540.67 252.697 544.485C249.982 548.149 247.383 551.916 245.26 555.961C238.792 554.105 233.093 554.68 227.085 557.863C224.953 558.992 222.71 560.517 220.952 562.171L219.638 560.932C214.243 556.303 203.891 557.313 197.354 555.711C195.614 556.154 193.649 556.707 191.874 556.298C194.947 552.721 206.468 549.113 211.094 543.977C219.287 539.312 228.576 528.394 235.506 521.504C242.468 514.582 249.605 507.802 257.269 501.657Z"/>
	<path fill="#92F6FD" d="M257.269 501.657C256.643 504.596 253.195 507.366 251.085 509.482C242.844 515.278 234.577 526.997 227.153 534.468C221.51 540.148 215.094 545.767 208.191 549.87C204.668 551.963 200.836 553.59 197.354 555.711C195.614 556.154 193.649 556.707 191.874 556.298C194.947 552.721 206.468 549.113 211.094 543.977C219.287 539.312 228.576 528.394 235.506 521.504C242.468 514.582 249.605 507.802 257.269 501.657Z"/>
	<path fill="#C29C92" d="M304.973 484.835C359.081 496.707 399.965 496.729 454.51 488.051C454.51 490.702 454.606 493.351 454.682 496L454.859 501.417C451.843 500.362 424.109 507.284 417.831 508.272C407.301 509.929 396.598 511.177 385.952 511.767C369.732 512.665 352.977 511.763 337.081 508.277C330.282 506.786 321.222 503.384 314.615 503.038C310.299 497.548 307.476 491.317 304.973 484.835Z"/>
	<defs>
		<linearGradient id="gradient_5" gradientUnits="userSpaceOnUse" x1="242.3793" y1="147.80672" x2="323.04343" y2="111.78119">
			<stop offset="0" stop-color="#B81D27"/>
			<stop offset="1" stop-color="#DD4843"/>
		</linearGradient>
	</defs>
	<path fill="url(#gradient_5)" d="M304.063 68.6443C309.341 73.1883 308.622 84.7298 310.567 91.1711C315.165 106.392 322.525 118.749 331.999 131.414C331.609 131.879 331.189 132.318 330.732 132.718C324.642 138.052 313.412 140.628 305.478 140.003C295.343 139.205 293.583 133.275 287.778 126.49L287.481 126.149C288.827 137.926 292.049 149.19 299.892 158.375C299.154 159.712 299.102 159.772 297.614 160.274C297.471 160.323 297.322 160.351 297.176 160.389C293.031 161.225 280.742 170.591 278.306 173.99C278.177 174.17 278.065 174.36 277.945 174.545C277.613 177.354 271.83 182.472 269.528 184.196C268.668 184.84 267.698 185.211 266.679 185.529C264.654 187.636 262.568 189.701 260.82 192.049C260.539 190.787 260.287 189.52 260.075 188.244C253.818 150.606 264.933 112.318 288.147 82.2635C291.948 77.3434 302.123 71.6605 303.712 69.2204C303.835 69.0319 303.946 68.8363 304.063 68.6443Z"/>
	<path fill="#47032F" d="M293.566 86.1429C288.408 99.0725 287.107 112.381 287.481 126.149C288.827 137.926 292.049 149.19 299.892 158.375C299.154 159.712 299.102 159.772 297.614 160.274C297.471 160.323 297.322 160.351 297.176 160.389C293.031 161.225 280.742 170.591 278.306 173.99C278.177 174.17 278.065 174.36 277.945 174.545C277.613 177.354 271.83 182.472 269.528 184.196C268.668 184.84 267.698 185.211 266.679 185.529C268.541 182.54 271.286 179.937 273.682 177.356C271.312 170.886 269.832 164.657 269.527 157.75C268.563 135.917 278.678 102.403 293.566 86.1429Z"/>
	<path fill="#FC8771" d="M290.301 148.179C292.872 152.071 295.21 156.159 297.176 160.389C293.031 161.225 280.742 170.591 278.306 173.99C278.177 174.17 278.065 174.36 277.945 174.545C277.153 174.636 277.07 174.871 276.598 174.427C274.44 172.397 273.491 163.899 273.02 160.907C279.796 158.579 285.491 153.253 290.301 148.179Z"/>
	<path fill="#F2B18C" d="M273.02 160.907C269.812 141.767 277.525 121.683 285.188 104.556C283.889 120.891 284.472 132.608 290.301 148.179C285.491 153.253 279.796 158.579 273.02 160.907Z"/>
	<path fill="#FBF7DF" d="M314.615 503.038C321.222 503.384 330.282 506.786 337.081 508.277C352.977 511.763 369.732 512.665 385.952 511.767C396.598 511.177 407.301 509.929 417.831 508.272C424.109 507.284 451.843 500.362 454.859 501.417C455.931 512.975 456.771 525.178 459.545 536.484C461.827 549.882 465.815 563.554 470.849 576.158C461.734 582.534 452.436 588.213 442.096 592.427C437.431 594.328 432.461 595.481 427.884 597.524C427.733 597.591 427.584 597.662 427.433 597.731C424.881 592.538 421.415 587.477 417.929 582.866C411.166 573.922 402.646 566.736 391.241 565.14L387.435 566.982L385.288 557.012C386.343 554.943 387.463 552.772 387.311 550.382C387.019 545.805 377.814 549.795 374.966 547.377C361.398 527.902 345.546 520.584 323.308 514.626C320.121 511.039 317.422 506.928 314.615 503.038Z"/>
</svg>
