<?xml version="1.0" standalone="no"?>
<!DOCTYPE svg PUBLIC "-//W3C//DTD SVG 20010904//EN"
 "http://www.w3.org/TR/2001/REC-SVG-20010904/DTD/svg10.dtd">
<svg version="1.0" xmlns="http://www.w3.org/2000/svg"
 width="512.000000pt" height="512.000000pt" viewBox="0 0 512.000000 512.000000"
 preserveAspectRatio="xMidYMid meet">
<metadata>
Created by potrace 1.16, written by Peter Selinger 2001-2019
</metadata>
<g transform="translate(0.000000,512.000000) scale(0.100000,-0.100000)"
fill="#000000" stroke="none">
<path d="M1734 4448 c32 -78 33 -78 -41 -41 -72 35 -162 57 -177 43 -4 -4 41
-41 100 -81 142 -94 174 -121 214 -174 18 -24 37 -42 42 -39 11 7 10 89 -2
139 -5 22 -7 41 -6 43 8 7 131 -116 157 -156 27 -43 28 -43 31 -16 3 26 3 26
34 -17 17 -24 49 -84 71 -132 39 -84 62 -102 48 -37 -4 17 -4 30 -1 30 11 0
76 -140 101 -217 46 -139 65 -313 36 -313 -4 0 -17 21 -29 46 -13 26 -25 45
-27 42 -2 -2 5 -46 15 -98 11 -52 20 -111 21 -130 0 -19 4 -44 8 -55 7 -16 11
-9 20 33 6 30 18 64 27 75 14 20 15 13 11 -93 -5 -139 -35 -244 -98 -335 -38
-56 -40 -58 -34 -26 l7 35 -28 -19 c-16 -11 -67 -41 -113 -68 -120 -69 -161
-99 -220 -159 -63 -64 -107 -150 -124 -243 l-14 -70 -21 42 c-14 27 -22 60
-22 93 0 27 -4 50 -9 50 -9 0 -31 -83 -31 -115 0 -44 -69 31 -111 119 -37 79
-52 153 -47 241 3 67 6 75 43 120 139 165 187 289 187 480 0 101 -20 184 -57
242 -31 47 -32 21 -3 -54 39 -100 46 -185 23 -287 -9 -43 -26 -98 -37 -124
-23 -53 -79 -142 -89 -142 -4 0 -12 41 -18 91 -7 50 -18 107 -26 126 -8 19
-13 39 -10 43 2 4 9 44 14 89 10 89 0 205 -24 275 l-14 41 46 -50 c25 -27 59
-77 75 -110 28 -59 28 -60 28 -24 0 84 -68 226 -163 339 -78 93 -164 159 -256
196 -39 16 -71 32 -71 35 0 4 52 12 114 19 l115 13 -32 45 c-33 46 -91 97
-142 126 -30 17 -29 17 55 12 113 -7 183 -27 313 -88 59 -28 110 -48 113 -45
4 3 -3 21 -15 40 -70 113 -353 202 -533 168 -65 -13 -178 -58 -178 -71 0 -4
16 -10 35 -13 67 -11 264 -116 219 -117 -5 0 -39 -7 -75 -14 -77 -17 -142 -47
-182 -84 l-28 -26 72 -12 c244 -42 426 -262 446 -540 6 -83 -11 -214 -28 -214
-5 0 -9 6 -9 14 0 7 -6 19 -14 25 -11 9 -18 -8 -38 -92 -18 -71 -48 -151 -96
-253 -39 -82 -76 -171 -82 -199 -16 -76 -20 -84 -35 -79 -16 7 -27 -27 -56
-171 -29 -151 -36 -335 -16 -450 21 -117 60 -250 102 -348 97 -225 309 -449
498 -527 54 -22 58 -27 97 -104 22 -45 59 -109 82 -143 39 -58 44 -62 98 -73
85 -18 86 -20 56 -72 -14 -25 -26 -58 -26 -75 0 -37 36 -78 87 -100 37 -15
207 -65 332 -98 36 -9 91 -30 124 -47 120 -60 299 -77 419 -39 36 12 77 30 89
40 22 18 23 21 11 65 -6 26 -12 59 -12 74 0 28 -42 77 -84 99 -17 9 -15 12 18
23 34 11 40 10 60 -9 17 -16 73 -30 281 -66 143 -26 294 -54 335 -65 96 -23
204 -32 255 -20 113 26 134 33 149 49 31 34 31 81 -2 153 -23 50 -39 72 -69
90 -71 45 -98 51 -191 45 -74 -4 -197 7 -211 19 -3 2 17 46 42 97 26 50 54
121 63 157 21 85 21 245 0 333 -17 72 -21 117 -9 117 3 0 29 -14 56 -32 75
-48 147 -51 233 -8 52 25 75 44 109 91 23 32 53 82 65 112 19 45 30 58 66 75
75 37 104 136 65 224 -39 91 -125 113 -228 58 -64 -34 -103 -38 -127 -11 -32
35 7 93 75 111 26 7 44 19 51 36 7 15 20 24 34 24 28 0 57 36 80 98 10 26 28
62 41 79 23 31 23 34 8 64 -9 17 -28 65 -42 107 -22 68 -24 89 -20 174 3 54 1
100 -3 103 -5 3 -16 28 -25 55 -12 36 -29 60 -62 88 -88 73 -95 81 -90 110 2
15 10 59 17 97 18 98 8 159 -35 202 -57 57 -139 43 -207 -37 -19 -22 -41 -58
-48 -80 -8 -23 -18 -44 -23 -47 -5 -3 -51 -7 -101 -8 -50 -1 -97 -3 -105 -6
-10 -3 -19 14 -31 53 -23 75 -54 116 -104 139 -89 40 -189 10 -239 -72 -53
-87 -72 -223 -45 -325 12 -44 11 -48 -20 -104 -23 -43 -32 -71 -32 -107 0 -39
-7 -57 -36 -96 -70 -96 -122 -110 -271 -72 -95 24 -119 27 -203 22 -52 -4
-120 -13 -151 -20 l-57 -14 46 56 c56 69 104 172 127 271 17 73 37 373 28 414
-11 47 -15 52 -25 26 -9 -22 -12 -13 -24 65 -43 288 -183 525 -419 708 -76 59
-254 157 -285 157 -5 0 -3 -15 4 -32z m1636 -982 c0 -12 -14 5 -31 39 -8 16
-6 15 10 -4 12 -13 21 -28 21 -35z m550 22 c25 -41 26 -66 3 -64 -18 1 -25
-19 -38 -105 l-5 -36 -60 31 c-68 35 -73 51 -40 123 19 43 69 83 103 83 9 0
26 -15 37 -32z m-620 7 c53 -28 92 -121 106 -260 l7 -70 17 65 c14 54 17 61
23 40 4 -14 7 -36 7 -50 1 -21 5 -17 23 21 15 32 27 45 37 41 13 -4 13 -3 1
11 -12 15 -10 17 20 16 19 0 64 -10 101 -22 54 -18 79 -34 128 -81 33 -32 60
-54 60 -50 0 5 -21 28 -45 52 -25 24 -45 48 -45 53 0 26 130 -43 223 -119 88
-71 107 -114 117 -257 6 -72 17 -137 34 -190 14 -44 25 -87 25 -95 0 -9 -3
-10 -5 -4 -4 9 -13 9 -35 0 -27 -10 -37 -8 -80 17 -58 32 -69 33 -69 9 0 -31
75 -82 121 -82 19 0 21 -4 16 -36 -9 -51 -32 -74 -78 -74 -29 0 -42 6 -59 28
l-21 27 5 -25 c3 -14 6 -36 6 -48 0 -15 7 -26 20 -29 30 -8 24 -19 -19 -31
-62 -19 -86 -15 -177 33 -47 25 -98 45 -113 45 -22 0 -83 -31 -110 -56 -14
-13 12 -12 49 1 23 8 44 15 45 15 2 0 -13 -16 -32 -35 -20 -20 -33 -38 -30
-41 3 -3 23 4 46 15 51 27 64 26 129 -4 28 -13 68 -27 87 -31 19 -3 35 -8 35
-9 0 -2 -4 -15 -10 -29 -9 -23 -15 -26 -62 -26 -73 0 -120 -15 -170 -53 -58
-44 -65 -46 -133 -35 -49 7 -67 16 -97 46 l-38 36 0 -38 c0 -30 -3 -37 -17
-34 -26 5 -27 34 -3 80 11 22 18 43 15 46 -7 8 -62 -46 -87 -86 -11 -18 -39
-42 -61 -54 -52 -26 -119 -70 -114 -74 2 -2 30 5 63 17 55 19 73 20 244 15
l185 -7 45 26 c25 14 65 35 89 47 l44 20 58 -28 c32 -15 55 -32 52 -37 -4 -6
1 -8 11 -4 10 4 15 3 11 -3 -3 -5 7 -16 23 -24 28 -15 48 -43 37 -54 -2 -3
-36 9 -73 26 -84 39 -127 43 -62 6 54 -31 90 -63 90 -81 0 -16 5 -18 -64 17
-32 17 -65 30 -72 30 -25 0 -14 -16 26 -39 22 -12 40 -26 40 -32 0 -11 -3 -11
-37 2 -18 7 -64 8 -128 4 l-100 -7 -18 -39 c-28 -58 -147 -163 -238 -208 -132
-66 -280 -73 -385 -18 -65 34 -121 138 -131 242 -6 68 -22 72 -23 5 -1 -34 -2
-34 -12 -10 -5 14 -8 60 -5 105 l5 80 -24 -30 c-28 -36 -48 -123 -40 -176 17
-104 91 -232 163 -282 42 -29 175 -67 236 -67 49 0 176 42 245 82 73 41 170
125 217 187 38 49 75 71 121 71 l24 0 -27 -57 c-15 -32 -60 -109 -100 -171
-128 -198 -151 -267 -48 -142 l60 71 14 -33 c19 -45 26 -211 12 -279 -16 -79
-58 -160 -135 -264 l-67 -90 33 -3 c18 -1 79 -9 136 -17 56 -8 152 -15 213
-15 115 0 146 -8 183 -49 11 -12 16 -24 13 -28 -4 -3 -7 -1 -7 5 0 6 -15 19
-32 28 l-33 17 33 -37 c35 -40 37 -48 22 -75 -20 -38 -39 -32 -65 19 -22 44
-59 79 -71 67 -2 -2 5 -24 16 -48 28 -63 26 -77 -12 -81 -90 -9 -170 21 -193
70 -12 26 -18 27 -36 6 -10 -13 -10 -17 2 -25 19 -12 8 -11 -96 6 -106 19
-275 65 -275 75 0 11 72 73 108 92 34 18 42 38 17 38 -24 0 -97 -39 -128 -68
l-27 -26 -26 26 -26 26 50 66 c94 122 152 282 152 420 0 81 -10 78 -35 -14
-45 -167 -134 -333 -218 -406 -89 -77 -207 -113 -281 -84 l-25 9 20 58 c29 82
36 211 14 292 -15 57 -69 181 -79 181 -2 0 5 -35 16 -77 26 -98 28 -236 5
-313 -14 -47 -34 -85 -106 -200 -8 -12 -18 -10 -65 14 -86 43 -167 37 -285
-24 -42 -21 -43 -21 -36 -1 5 16 2 18 -15 14 -12 -3 -29 2 -40 12 -16 15 -18
21 -7 34 10 14 10 14 -5 3 -14 -12 -19 -10 -33 12 -77 117 -99 335 -50 483 15
43 42 103 60 133 46 76 138 175 191 206 53 31 51 39 -5 24 -94 -25 -257 -150
-327 -251 l-29 -42 -12 39 c-8 28 -12 32 -12 16 -1 -13 4 -33 10 -44 7 -13 7
-24 1 -30 -16 -16 -43 79 -49 172 -12 184 62 324 242 458 38 28 51 42 35 37
-169 -47 -320 -226 -366 -435 -9 -41 -20 -77 -24 -80 -12 -8 -31 -113 -38
-207 l-7 -85 -28 71 c-43 111 -70 286 -62 400 16 233 122 482 261 612 27 25
49 49 49 55 0 18 140 114 214 145 42 18 80 36 86 41 15 13 -37 9 -88 -6 -26
-8 -47 -12 -47 -10 0 9 102 54 157 68 86 23 238 21 341 -4 46 -11 93 -20 105
-20 18 0 15 -6 -23 -46 -39 -40 -42 -45 -20 -39 14 4 52 21 85 38 33 16 72 30
86 29 24 -1 28 5 44 63 9 35 23 72 31 82 12 16 13 14 14 -20 0 -37 26 -114 35
-105 3 2 11 38 19 79 8 41 19 87 26 104 10 26 8 31 -11 46 -19 14 -21 23 -16
61 3 24 11 58 17 74 l12 29 24 -45 24 -45 -5 75 c-4 41 -15 101 -26 133 -21
62 -25 117 -9 117 6 0 10 -7 10 -15 0 -19 32 -81 60 -115 15 -19 22 -22 29
-12 12 20 21 -34 14 -85 -8 -59 0 -77 27 -61 12 7 30 28 41 46 21 32 43 45 33
17 -5 -11 -2 -13 10 -9 21 8 20 34 -4 130 -36 140 -93 232 -129 210 -18 -12
-18 -62 -1 -130 11 -39 17 -72 14 -75 -12 -13 -57 24 -74 62 -35 75 -21 157
36 206 39 35 78 40 124 16z m-1830 -294 c0 -62 -26 -190 -56 -284 -20 -60 -33
-111 -30 -114 12 -12 68 131 88 226 12 53 25 100 30 106 15 17 8 -93 -12 -197
-11 -57 -20 -135 -20 -174 0 -111 51 -257 122 -346 l30 -38 -16 -47 c-20 -62
-37 -182 -29 -211 3 -12 2 -22 -1 -22 -11 0 -45 82 -57 141 -10 46 -13 50 -19
29 -7 -26 2 -139 14 -177 19 -61 -59 17 -110 109 -28 51 -29 59 -29 178 0 69
4 154 9 190 11 88 -6 70 -36 -37 -13 -46 -26 -83 -29 -83 -14 0 -43 123 -47
201 -6 115 7 167 82 328 34 75 71 160 81 189 19 53 35 68 35 33z m-198 -846
c53 -131 102 -229 144 -287 18 -26 56 -91 83 -145 27 -54 70 -132 95 -173 25
-41 46 -78 46 -82 0 -11 -55 18 -98 50 -43 33 -119 134 -151 202 -22 47 -26
52 -29 30 -1 -14 6 -54 17 -90 11 -35 19 -66 17 -68 -9 -8 -78 64 -115 119
-42 62 -83 175 -100 273 -14 79 -14 244 1 325 l12 66 18 -60 c10 -33 37 -105
60 -160z m2904 -171 c5 -20 1 -32 -17 -50 -26 -25 -106 -63 -94 -43 5 8 1 9
-13 5 -40 -13 -31 12 13 38 24 15 52 38 62 51 23 32 41 31 49 -1z m42 -66 c-4
-56 -35 -78 -122 -85 -36 -3 -66 -2 -66 3 0 5 23 17 51 27 29 11 65 34 87 57
20 21 41 39 45 39 5 1 7 -18 5 -41z m7 -67 c-27 -53 -61 -71 -129 -70 -66 1
-67 1 46 30 23 6 47 22 60 39 28 38 43 39 23 1z m-290 -141 c6 -17 15 -20 76
-20 38 0 69 -4 69 -8 0 -5 -18 -34 -41 -65 -79 -112 -207 -137 -284 -57 l-29
30 24 50 c23 50 33 59 45 40 11 -17 39 -10 80 20 48 35 52 36 60 10z m-2499
-275 c63 -61 114 -116 114 -123 0 -7 -11 -12 -23 -12 -45 0 -167 139 -241 275
l-28 50 32 -40 c18 -22 84 -90 146 -150z m1198 -836 c50 -24 74 -29 134 -29
84 0 123 -15 170 -63 32 -33 54 -97 34 -97 -6 0 -14 9 -17 21 -9 28 -64 89
-81 89 -20 0 -17 -14 5 -34 46 -42 54 -118 12 -124 -43 -7 -69 7 -94 51 -26
44 -54 73 -62 65 -2 -2 3 -27 12 -56 9 -28 15 -54 12 -56 -9 -10 -134 25 -159
44 -19 15 -24 26 -23 59 1 23 -1 41 -4 41 -3 0 -18 -14 -34 -31 l-29 -31 -102
34 c-125 42 -131 56 -49 105 99 59 168 62 275 12z"/>
<path d="M3845 3130 c3 -5 11 -10 16 -10 6 0 7 5 4 10 -3 6 -11 10 -16 10 -6
0 -7 -4 -4 -10z"/>
<path d="M3877 3099 c7 -7 15 -10 18 -7 3 3 -2 9 -12 12 -14 6 -15 5 -6 -5z"/>
<path d="M3557 3079 c75 -29 145 -97 188 -181 34 -68 35 -69 35 -35 0 51 -33
120 -80 167 -50 50 -94 70 -152 69 l-43 0 52 -20z"/>
<path d="M3454 2988 c-9 -17 -29 -49 -45 -70 -15 -22 -33 -55 -39 -74 -6 -19
-16 -34 -21 -34 -5 0 -9 -4 -9 -10 0 -5 9 -10 20 -10 17 0 20 -7 20 -45 0 -48
17 -67 73 -81 33 -8 248 16 241 27 -2 4 -45 11 -94 15 -54 4 -97 12 -107 21
-10 8 -12 11 -5 8 21 -11 109 -7 131 5 16 8 28 7 50 -5 17 -8 39 -15 51 -15
l21 0 -21 28 c-12 16 -30 64 -41 108 -10 43 -27 90 -37 104 -26 35 -79 60
-129 60 -38 0 -44 -4 -59 -32z m120 -49 c18 -27 12 -45 -19 -53 -46 -12 -66
13 -49 58 9 23 50 20 68 -5z m-132 -84 c-4 -63 -1 -80 14 -98 10 -12 2 -6 -19
12 -43 40 -46 64 -17 121 11 22 22 40 23 40 1 0 1 -34 -1 -75z"/>
<path d="M3118 2704 c-12 -95 45 -192 137 -230 l40 -16 -51 54 c-58 61 -80 98
-104 177 l-17 55 -5 -40z"/>
<path d="M3906 2582 c-10 -17 3 -52 19 -52 23 0 26 17 7 41 -13 15 -21 19 -26
11z"/>
<path d="M3640 2482 c0 -11 80 -35 88 -27 4 4 -2 13 -12 21 -21 15 -76 19 -76
6z"/>
<path d="M2410 1961 c40 -51 162 -160 219 -196 l44 -27 -24 33 c-53 77 -228
229 -262 229 -5 0 5 -18 23 -39z"/>
<path d="M2850 1852 c0 -19 30 -71 58 -102 20 -21 19 -17 -6 25 -16 28 -34 59
-40 70 -7 11 -12 14 -12 7z"/>
<path d="M2393 1714 l-28 -25 33 22 c17 13 32 24 32 26 0 8 -11 1 -37 -23z"/>
<path d="M2657 1594 c21 -44 40 -76 42 -71 6 15 -28 90 -54 122 -22 26 -20 19
12 -51z"/>
<path d="M1851 1644 c0 -11 3 -14 6 -6 3 7 2 16 -1 19 -3 4 -6 -2 -5 -13z"/>
<path d="M2006 1587 c3 -10 9 -15 12 -12 3 3 0 11 -7 18 -10 9 -11 8 -5 -6z"/>
<path d="M2491 1512 c-1 -52 -7 -148 -15 -215 -8 -67 -17 -156 -20 -197 l-5
-75 30 90 c62 188 73 355 30 449 l-19 41 -1 -93z"/>
<path d="M1652 4073 c82 -86 163 -194 207 -280 26 -53 46 -57 25 -5 -50 120
-90 180 -185 275 -54 53 -105 97 -115 97 -12 0 11 -30 68 -87z"/>
<path d="M1750 4075 c0 -4 32 -44 71 -89 152 -174 209 -323 209 -547 0 -89
-17 -199 -31 -199 -11 0 -51 56 -84 118 -16 28 -32 52 -37 52 -4 0 17 -51 48
-112 31 -62 56 -125 56 -139 -1 -53 -110 -237 -176 -298 -47 -44 -27 -43 35 0
75 53 109 95 156 195 20 44 40 81 44 84 3 3 14 49 24 104 34 189 5 397 -79
564 -36 72 -107 171 -153 213 -35 33 -83 64 -83 54z"/>
<path d="M1836 3310 c-14 -76 -56 -202 -83 -250 -14 -25 -49 -76 -78 -115 -52
-70 -90 -134 -83 -140 9 -9 170 217 198 276 33 72 63 195 58 243 -3 28 -4 27
-12 -14z"/>
<path d="M2102 3190 c-7 -34 -16 -68 -19 -77 -4 -11 -2 -14 8 -11 16 5 37 69
38 116 1 52 -14 37 -27 -28z"/>
</g>
</svg>